<svg xmlns="http://www.w3.org/2000/svg" width="500" height="500"><path fill="#222826" d="m330 77 2.254 1.056C345.524 84.323 357.707 91.56 369 101l3.063 2.434 3.062 2.441 2.82 2.242L380 110v2l1.762.773C397.614 121.46 409.942 143.36 418 159l1.35 2.604c9.179 17.909 16.345 36.47 19.65 56.396l.617 3.469c5.972 40.245-1.027 81.375-20.687 116.976-1.734 3.149-3.277 6.364-4.805 9.618C406.922 362.43 396.129 373.606 385 385l-2.64 2.762c-5.397 5.56-11.22 10.515-17.36 15.238l-2.31 1.792c-7.162 5.405-14.714 9.714-22.69 13.77l-1.925.987C327.66 424.872 317.228 429.646 306 433l-2.349.708c-46.44 13.61-97.898 9.23-140.655-13.653a287.694 287.694 0 0 0-6.309-3.211c-11.673-5.874-22.044-12.674-31.093-22.211-1.72-1.763-3.533-3.347-5.406-4.945-35.104-30.342-57.532-76.963-61.047-123.182-2.163-38.544 4.951-73.608 22.954-107.785a429.36 429.36 0 0 0 2.46-4.768C96.017 132.02 115.319 111.803 135 97l2.758-2.121C193.544 54.022 267.81 47.6 330 77Z"/><path fill="#D8D9D4" d="m330 77 2.254 1.056C345.524 84.323 357.707 91.56 369 101l3.063 2.434 3.062 2.441 2.82 2.242L380 110v2l1.762.773C397.614 121.46 409.942 143.36 418 159l1.35 2.604c9.179 17.909 16.345 36.47 19.65 56.396l.617 3.469c5.972 40.245-1.027 81.375-20.687 116.976-1.734 3.149-3.277 6.364-4.805 9.618C406.922 362.43 396.129 373.606 385 385l-2.64 2.762c-5.397 5.56-11.22 10.515-17.36 15.238l-2.31 1.792c-7.162 5.405-14.714 9.714-22.69 13.77l-1.925.987C327.66 424.872 317.228 429.646 306 433l-2.349.708c-46.44 13.61-97.898 9.23-140.655-13.653a287.694 287.694 0 0 0-6.309-3.211c-11.673-5.874-22.044-12.674-31.093-22.211-1.72-1.763-3.533-3.347-5.406-4.945-35.104-30.342-57.532-76.963-61.047-123.182-2.163-38.544 4.951-73.608 22.954-107.785a429.36 429.36 0 0 0 2.46-4.768C96.017 132.02 115.319 111.803 135 97l2.758-2.121C193.544 54.022 267.81 47.6 330 77Zm-112-8-2.623.539C167.012 79.813 123.675 108.379 96.625 150c-5.203 8.04-9.635 16.3-13.625 25l-.855 1.864c-18.787 41.438-21.316 90.564-5.22 133.378A418.986 418.986 0 0 0 83 325l1.13 2.657c2.965 6.781 6.493 12.998 10.495 19.218l1.854 2.897c4.965 7.631 10.395 14.513 16.521 21.228a1774.95 1774.95 0 0 1 3.75 4.375C145.523 407.88 190.675 430.045 234 433c17.194.642 34.107.503 51-3l2.173-.422c26.06-5.111 54.41-17.236 74.827-34.578v-2l2.047-.594c4.093-1.949 6.952-4.787 10.203-7.906l2.025-1.927c27.402-26.293 45.042-59.248 53.538-96.073l.627-2.713c8.684-39.413.37-82.167-17.44-117.787h-2l-.262-2.094c-.922-3.629-2.557-6.24-4.55-9.406l-2.083-3.344c-1.907-2.858-3.96-5.476-6.105-8.156l-1.36-2.352c-2.27-3.666-5.05-6.787-7.89-10.023l-1.66-1.922C356.042 93.075 311.683 71.633 265 67c-5.15-.253-10.282-.288-15.438-.25l-2.056.011c-9.951.065-19.73.197-29.506 2.239Z"/><path fill="#2CE78E" d="M227.473 244.61a2524.553 2524.553 0 0 1 20.548.116c5.068.04 10.136.059 15.204.079 9.925.042 19.85.11 29.775.195a622.18 622.18 0 0 1-.427 4.31l-.24 2.424c-1.035 7.053-6.07 13.938-11.216 18.707-4.34 3.196-9.209 5.38-14.117 7.559l-3.074 1.567c-4.557 1.939-8.911 1.812-13.797 1.726l-2.795-.013c-2.924-.017-5.848-.054-8.772-.092a4266.61 4266.61 0 0 0-5.974-.042c-4.863-.032-9.725-.084-14.588-.146l.063 3.054c.074 3.783.119 7.567.157 11.35.02 1.63.047 3.259.082 4.888.275 13.195-.905 23.615-10.302 33.708-7.653 7.125-16.635 10.506-27 11-1.813-1.813-1.156-4.616-1.177-7.058l-.039-3.937c-.008-1.434-.016-2.868-.022-4.302l-.013-2.188c-.02-3.834-.035-7.668-.044-11.502-.011-3.93-.045-7.86-.085-11.79-.027-3.044-.035-6.088-.038-9.132a451 451 0 0 0-.035-4.339c-.136-11.2.853-22.29 7.453-31.752h2l.777-1.813c1.347-2.409 2.582-3.549 4.786-5.187l1.878-1.438c.845-.515 1.69-1.03 2.559-1.562l1.534-1.014c8.277-4.593 17.777-3.483 26.939-3.377Z"/><path fill="#0277D5" d="M228.73 178.886h3.167c3.43 0 6.86.008 10.29.016l7.163.005c6.267.003 12.534.013 18.8.024 6.402.01 12.804.015 19.205.02 12.549.01 25.097.028 37.645.049a690.5 690.5 0 0 1-.425 4.31l-.24 2.424C323.242 193.12 317.527 201.081 312 206c-12.025 8.726-25.493 9.579-39.767 9.516-2.936-.012-5.87 0-8.807.016-5.171.027-10.343.033-15.515.031-8.289-.002-16.578.012-24.867.056-2.879.01-5.757.001-8.636-.009-1.777.006-3.554.013-5.33.021l-2.391-.023c-6.738.06-12.7 1.6-18.5 5.08-2.91 3.077-4.51 6.452-6.187 10.312h-2c-.98-27.086-.98-27.086 8.953-38.93 11.393-11.523 24.29-13.24 39.777-13.184Z"/><path fill="#D6D7D4" d="m330 77 2.254 1.056C345.524 84.323 357.707 91.56 369 101l3.063 2.434 3.062 2.441 2.82 2.242L380 110v2l1.762.773C397.614 121.46 409.942 143.36 418 159l1.35 2.604C429.055 180.54 440.311 204.135 439 226h-1l-2-9 .21 2.253c3.293 38.362-.307 73.968-15.96 109.372l-.957 2.176c-.763 1.734-1.528 3.466-2.293 5.199l-3-1c-.294-4.734.462-7.557 2.625-11.75 5.651-11.768 9.26-24.048 12.188-36.75l.627-2.713c8.449-38.339.533-78.975-15.725-114.013C413 168 413 168 413 166h-2l-1.031-2.238c-3.16-6.613-6.685-12.467-11.137-18.29C397 143 397 143 395.625 140.623c-20.178-32.548-61.98-58.05-98.484-67.165-15.781-3.637-31.356-5.827-47.579-5.707l-2.056.011c-9.951.065-19.73.197-29.506 2.239l-2.623.539C167.46 80.719 124.451 108.724 97.625 150c-5.203 8.04-9.635 16.3-13.625 25l-.855 1.864c-4.774 10.529-8.52 21.167-11.27 32.386l-.481 1.91c-3.197 13.64-3.724 27.464-3.957 41.403-.044 2.388-.09 4.776-.142 7.165a681.46 681.46 0 0 0-.08 4.4c-.089 4.382-.518 8.556-1.215 12.872h-1l.035-2.152.028-2.786.035-2.777c.161-2.25.161-2.25-1.098-3.285a224.497 224.497 0 0 1-.203-8.688l-.017-2.698c-.01-1.9-.016-3.8-.02-5.7-.01-2.847-.04-5.693-.072-8.539-.089-14.96 1.546-28.973 6-43.313l.77-2.51C76.328 176.079 85.306 157.482 97 142l2.047-2.848c5.505-7.564 11.52-14.387 17.953-21.152l1.996-2.227C136.774 96.672 160.701 84.783 184 74l-5-1c10.84-7.227 26.335-9.642 39-12l3.598-.688c36.995-5.796 74.794.8 108.402 16.688Z"/><path fill="#0474D3" d="M218.706 247.886h2.337c2.543 0 5.086.009 7.629.016l5.296.005c4.643.003 9.285.013 13.928.024 4.74.01 9.478.015 14.217.02 9.296.01 18.591.028 27.887.049-1.235 9.587-5.24 16.198-12.814 22.237l-1.749 1.325-1.582 1.265c-9.18 6.463-22.688 5.462-33.445 5.482l-7.56.076c-3.913.029-7.825.053-11.738.071-3.817.022-7.634.061-11.452.103h-3.535c-8.027.098-13.546 1.208-20.063 6.128L183 287c-.696-9.997.755-18.552 7.375-26.375A125.095 125.095 0 0 1 194 257l1.54-1.496c6.791-6.12 14.288-7.662 23.166-7.618Z"/><path fill="#D3D4CF" d="M435 214c2.024 3.035 2.321 4.194 2.625 7.688l.227 2.449L438 226h2c5.282 38.777-2.189 78.254-21.07 112.445-1.734 3.149-3.277 6.364-4.805 9.618C406.922 362.43 396.129 373.606 385 385l-2.64 2.762c-5.397 5.56-11.22 10.515-17.36 15.238l-2.31 1.792c-7.162 5.405-14.714 9.714-22.69 13.77l-1.925.987C327.66 424.872 317.228 429.646 306 433l-2.349.708c-46.431 13.608-97.884 9.233-140.637-13.64a376.805 376.805 0 0 0-6.467-3.33c-19.585-9.99-19.585-9.99-24.547-17.738v-3c3.508 1.256 6.043 2.657 8.875 5.063C156.807 413.702 176.643 423.015 196 429l3.379 1.078c31.302 9.209 69.373 9.675 100.621-.078l2.253-.69c19.723-6.158 38.578-14.677 55.122-27.145 1.617-1.16 3.34-2.166 5.059-3.169L365 397l-.046-2.406C365 392 365 392 366.37 390.186l1.927-1.682 2.138-1.92 2.315-2.022c17.178-15.62 29.347-33.747 41.25-53.562l.375 1.938L415 335l2 1 .336-2.191c.706-2.985 1.788-5.078 3.289-7.747C427.397 312.861 431.618 297.615 434 283l.617-3.621c1.582-10.618 1.567-21.294 1.57-32.004l.004-2.237c-.002-10.414-.428-20.752-1.191-31.138Z"/><path fill="#D8DAD7" d="M109 371c5.237 1.292 8.124 3.694 11.688 7.563 30.561 31.76 76.192 52.715 120.367 53.64 14.906.148 29.294-.165 43.945-3.203l2.173-.422c25.29-4.96 51.333-16.229 71.409-32.582C360 395 360 395 362 395v-2l3-1 1 5c-43.93 31.91-92.346 46.15-146.765 38.476C187.117 430.346 157.862 415.26 132 396l3 6c-3.367-1.393-4.986-2.979-7-6h2c-1.379-3.194-2.881-4.994-5.563-7.188a189.576 189.576 0 0 1-9.312-8.437l-2.242-2.164c-1.976-2.32-2.925-4.337-3.883-7.211Z"/><path fill="#BDEADB" d="M227.473 244.61a2524.553 2524.553 0 0 1 20.548.116c5.068.04 10.136.059 15.204.079 9.925.042 19.85.11 29.775.195a622.18 622.18 0 0 1-.427 4.31l-.24 2.424c-1.035 7.053-6.07 13.938-11.216 18.707-4.34 3.196-9.209 5.38-14.117 7.559l-3.074 1.567c-4.557 1.939-8.911 1.812-13.797 1.726l-2.795-.013c-2.924-.017-5.848-.054-8.772-.092a4266.61 4266.61 0 0 0-5.974-.042c-4.863-.032-9.725-.084-14.588-.146l.048 3.165c.054 3.875.088 7.75.117 11.624.015 1.677.035 3.354.061 5.031.037 2.41.054 4.82.067 7.23.015.75.03 1.501.047 2.274 0 2.123 0 2.123-.34 5.676l-3 3 1-38c-16.608.024-16.608.024-26 4l-2.375.875c-2.421 1.676-2.75 3.32-3.625 6.125a104.314 104.314 0 0 0-.23 7.977v2.32c.004 1.62.012 3.238.024 4.857.018 2.442.02 4.884.02 7.326.02 8.222.2 16.346 1.186 24.52 8.02.51 8.02.51 15-3l1.863-1.219c5.508-3.734 8.79-8.075 12.137-13.781 1 3 1 3 .031 5.05-7.143 10.552-15.475 16.48-28.031 18.95-2.938.188-2.938.188-5 0-1.813-1.813-1.156-4.616-1.177-7.058l-.039-3.937c-.008-1.434-.016-2.868-.022-4.302l-.013-2.188c-.02-3.834-.035-7.668-.044-11.502-.011-3.93-.045-7.86-.085-11.79-.027-3.044-.035-6.088-.038-9.132a451 451 0 0 0-.035-4.339c-.136-11.2.853-22.29 7.453-31.752h2l.777-1.813c1.347-2.409 2.582-3.549 4.786-5.187l1.878-1.438c.845-.515 1.69-1.03 2.559-1.562l1.534-1.014c8.277-4.593 17.777-3.483 26.939-3.377Zm-37.641 16.097c-2.966 3.712-4.42 7.8-5.832 12.293l-1 3a118.704 118.704 0 0 0-.063 5.688l.028 3.011L183 287l1.54-1.242 2.085-1.633 2.04-1.617c6.55-4.229 13.363-3.818 20.898-3.852l3.707-.044c3.91-.046 7.82-.08 11.73-.112 5.125-.041 10.25-.095 15.375-.156l3.502-.016c16.064.204 16.064.204 30.185-6.14l2.668-2.176L279 268l2.875-2.5c4.866-5.725 7.147-9.975 8.125-17.5-10.145-.07-20.29-.123-30.435-.155a3700.62 3700.62 0 0 1-14.134-.071c-4.551-.033-9.103-.05-13.655-.059a836.721 836.721 0 0 1-5.194-.032c-15.15-.137-25.698 1.76-36.75 13.024Z"/><path fill="#D4D5D0" d="M215 67v4l-3.82.777c-47.56 10.192-88.666 39.77-114.99 80.44C91.537 159.536 87.615 167.12 84 175l-.855 1.864c-4.774 10.529-8.52 21.167-11.27 32.386l-.481 1.91c-3.197 13.64-3.724 27.464-3.957 41.403-.044 2.388-.09 4.776-.142 7.165a681.46 681.46 0 0 0-.08 4.4c-.089 4.382-.518 8.556-1.215 12.872h-1l.035-2.152.028-2.786.035-2.777c.161-2.25.161-2.25-1.098-3.285a224.497 224.497 0 0 1-.203-8.688l-.017-2.698c-.01-1.9-.016-3.8-.02-5.7-.01-2.847-.04-5.693-.072-8.539-.089-14.96 1.546-28.973 6-43.313l.77-2.51C76.328 176.079 85.306 157.482 97 142l2.047-2.848c5.505-7.564 11.52-14.387 17.953-21.152l1.996-2.227C136.774 96.672 160.701 84.783 184 74l-5-1c2.414-1.61 4.34-2.655 7-3.688l2.063-.824C190 68 190 68 193 69l-7 2v2l2.231-.658c3.337-.979 6.678-1.942 10.019-2.904l3.512-1.038 3.379-.966 3.11-.905c2.72-.523 4.177-.457 6.749.471Z"/><path fill="#40413E" d="m330 77 2.254 1.056C345.524 84.323 357.707 91.56 369 101l3.063 2.434 3.062 2.441 2.82 2.242L380 110v2l1.762.773c15.26 8.363 27.312 29.34 35.232 44.329a372.976 372.976 0 0 0 2.9 5.335c2.888 5.41 4.948 9.386 4.106 15.563h2l1 7c-3.43-1.715-4.196-5.782-5.625-9.188C407.868 144.66 385.555 117.73 358 98l-3.219-2.367c-39.014-27.907-89.417-37.394-136.406-29.945-8.568 1.495-16.887 3.64-25.145 6.359C190 73 190 73 186 73v-2l7-2v-2c46.082-13.463 93.504-10.562 137 10Z"/><path fill="#585954" d="M185 73c-2.423 2.767-4.9 4.059-8.234 5.566l-3.158 1.456-3.358 1.54C160.175 86.296 150.92 91.358 142 98l-1.715 1.257A227.211 227.211 0 0 0 119 117l-2.195 2c-23.923 22.637-40.376 55.571-48.618 87.063l-.59 2.21c-4.046 16.538-3.86 33.448-3.722 50.352.01 2.182.02 4.365.027 6.547.022 5.276.055 10.552.098 15.828h-3c-6.675-42.793 1.011-84.152 21.095-122.28a429.36 429.36 0 0 0 2.46-4.767C96.017 132.02 115.319 111.803 135 97l2.758-2.121c9.62-7.045 20.188-12.31 30.817-17.652a259.64 259.64 0 0 0 5.843-3.067c3.764-1.691 6.505-1.37 10.582-1.16Z"/><path fill="#5B5C58" d="M132 396c3.508 1.256 6.043 2.657 8.875 5.063C156.807 413.702 176.643 423.015 196 429l3.379 1.078c31.302 9.209 69.373 9.675 100.621-.078l2.253-.69c19.749-6.166 38.288-14.75 54.957-27.043 3.166-2.241 6.477-4.252 9.79-6.267v4c-2.266 2-2.266 2-5.25 4-4.017 2.687-4.017 2.687-7.573 5.925-4.192 3.996-9.62 6.264-14.74 8.887l-1.834.946C327.345 425.022 317.057 429.665 306 433l-2.357.712c-46.43 13.603-97.88 9.227-140.63-13.644a376.805 376.805 0 0 0-6.466-3.33c-19.585-9.99-19.585-9.99-24.547-17.738v-3Z"/><path fill="#CEE9EC" d="m221.487 179.66 3.373-.002c3.652.002 7.304.025 10.956.049 2.543.006 5.086.01 7.63.013 5.992.01 11.984.034 17.976.064 6.827.034 13.654.05 20.481.065 14.033.031 28.065.084 42.097.151l-1 4-1-1a60.607 60.607 0 0 0-4.191-.14l-2.74-.018-3.03-.003-3.173-.015c-3.485-.015-6.97-.022-10.456-.027l-7.255-.017c-5.084-.01-10.167-.017-15.25-.02-6.5-.006-13-.03-19.5-.058-5.002-.019-10.005-.024-15.007-.026-2.395-.003-4.79-.01-7.185-.024-3.363-.017-6.725-.015-10.088-.008l-2.975-.028c-10.216.06-18.562 2.361-26.15 9.384-6.106 6.25-9.13 10.344-9.625 19.25L185 218l2.108-1.29c10.56-5.716 20.083-5.508 31.83-5.374 2.012-.001 4.025-.005 6.038-.013 5.27-.013 10.538.005 15.807.035 8.43.045 16.859.06 25.29.04 2.92 0 5.84.026 8.76.054 12.088.04 24.4-.313 34.167-8.452l1-2 3-1 1-3 2-1a134.078 134.078 0 0 0 3-6h2l1-5h1c-.179 8.035-4.558 14.487-10.078 20.121-9.18 7.678-19.91 10.022-31.609 10.037l-2.618.015c-1.872.01-3.744.02-5.616.026-2.969.012-5.937.032-8.906.053-8.439.062-16.877.116-25.317.15-5.167.02-10.333.056-15.5.1-1.963.014-3.927.023-5.89.026-2.754.005-5.508.028-8.262.055l-2.428-.009c-6.767.099-12.76 1.617-18.589 5.113-2.91 3.078-4.51 6.453-6.187 10.313h-2c-.98-27.086-.98-27.086 8.953-38.93 9.471-9.58 19.37-12.548 32.534-12.41Z"/><path fill="#5BB6CF" d="M218 179h107l-1 9h-2l-1 2h-2l-.813 2.938L317 196l-3 1c-.733 2.015-.733 2.015-1 4h-3l-.938 1.938C308 205 308 205 307 206a94.56 94.56 0 0 1-4.313 1c-3.388.716-3.388.716-6.746 1.559-2.973.676-5.906.5-8.941.441l3-1-.563-2.375C289 203 289 203 290 201c7.412-1.294 7.412-1.294 10 0v2c3.555-1.016 5.434-2.282 7.688-5.125L310 195h2v-8l-2.7.016c-3.382.017-6.765.03-10.148.039-1.45.005-2.899.012-4.349.02-9.984.06-19.848-.272-29.803-1.075v-1l7-1-59-1v-1c14.195-.023 28.39-.04 42.584-.052 6.59-.005 13.18-.012 19.77-.023 6.355-.011 12.71-.017 19.063-.02 2.43-.002 4.86-.005 7.29-.01 3.392-.008 6.783-.009 10.174-.009l3.077-.01 2.784.004 2.433-.003C322 182 322 182 323 183l1-3H218v-1Z"/><path fill="#136620" d="m204.328 214.902 2.422.01 2.5.025 2.547.014c2.068.012 4.135.03 6.203.049 1 3 1 3 0 18h-37c1.87-6.548 3.259-10.664 8.965-14.227 4.767-2.468 8.956-3.91 14.363-3.87Z"/><path fill="#6C6C68" d="M435 214c2.024 3.035 2.321 4.194 2.625 7.688l.227 2.449L438 226h2c5.287 38.817-2.213 78.306-21.11 112.531-2.075 3.808-3.96 7.68-5.785 11.614C412 352 412 352 409 354h-3c1.436-3.988 3.373-7.27 5.688-10.813 4.664-7.35 8.038-15.14 11.312-23.187l.984-2.375C437.584 284.383 437.552 249.274 435 214Z"/><path fill="#0622A3" d="m217.293 182.902 2.14.005c2.251.005 4.503.018 6.755.03 1.527.006 3.055.01 4.583.014 3.743.011 7.486.028 11.229.049v1l-3.586.078c-8.832.282-16.464.68-24.414 4.922-5.786 3-5.786 3-10 3-1.793 1.292-1.793 1.292-3 3v2l-2 2-1 2-2.375-.188L193 201c-2.367 2.848-2.367 2.848-1.625 6.188L192 210l2.375-.988c4.63-1.293 8.837-1.262 13.617-1.207l2.867.008c3.005.011 6.01.037 9.016.062 2.044.01 4.089.02 6.133.027 4.997.022 9.995.057 14.992.098v2h17v1l-1.83.031c-6.328.109-12.656.224-18.983.341a5655.3 5655.3 0 0 1-7.07.125c-3.401.059-6.802.122-10.203.187l-3.158.05c-12.77.033-12.77.033-24.756 3.828-4.861 2.438-4.861 2.438-7 2.438l-1 2c-.334-10.508.684-18.07 8-26 7.406-7.496 14.623-11.178 25.293-11.098Z"/><path fill="#4C4E47" d="M64 282c2.746 2.746 2.935 5.759 3.688 9.438C72.654 313.723 82.313 336.678 96 355l2.105 2.922C107.68 371.003 118.16 383.995 131 394l-1 3c-33.693-18.997-54.212-61.514-65-97l-.629-1.969c-.566-3.098-.463-6.137-.433-9.281l.027-3.828L64 282Z"/><path fill="#049936" d="m202.11 280.902 2.285.01 2.355.026 2.402.013c1.95.012 3.899.03 5.848.049v16h-2l-1 3v-2l-1.938.563L208 299l-1-1a71.42 71.42 0 0 0-4.25 0c-3.393.038-6.457-.074-9.75-1l-1-1v4c-2 2-2 2-4.625 2.125L185 302l-1 2a590.393 590.393 0 0 1-.125-6.25l-.07-3.516c.19-3.138.403-4.7 2.195-7.234 1.805-1.45 1.805-1.45 3.875-2.688l2.055-1.261c3.368-1.71 6.426-2.177 10.18-2.149Z"/><path fill="#C1EAF8" d="M219.776 244.886h2.396c2.613 0 5.226.009 7.84.016l5.435.005c4.77.003 9.538.013 14.308.024 4.866.01 9.732.015 14.599.02 9.548.01 19.097.028 28.646.049a622.18 622.18 0 0 1-.427 4.31l-.24 2.424c-1.034 7.047-6.065 13.949-11.22 18.703-9.673 7.153-19.964 9.893-31.773 9.793h-2.75c-1.914-.004-3.828-.012-5.741-.024-2.879-.018-5.757-.02-8.636-.02-10.445-.021-20.802-.306-31.213-1.186v-1l1.918-.025c6.652-.086 13.305-.186 19.957-.292 2.475-.038 4.95-.073 7.425-.105 23.198 1.24 23.198 1.24 43.887-6.64 4.707-3.903 4.707-3.903 7.813-4.938 1.027-1.715 1.027-1.715 2-4 2-3.313 2-3.313 3-4.926 1.383-2.87 2.125-6.01 3-9.074h-83c3.703-3.703 7.868-3.137 12.776-3.114Z"/><path fill="#646562" d="M132 396c3.508 1.256 6.043 2.657 8.875 5.063C156.807 413.702 176.643 423.015 196 429l3.379 1.078c11.328 3.333 22.917 4.598 34.621 5.922v1l-7 1 46 1v1c-38.001 4.043-76.15-1.83-109.986-19.932a376.805 376.805 0 0 0-6.467-3.33c-19.585-9.99-19.585-9.99-24.547-17.738v-3Z"/><path fill="#063EB0" d="M215.769 247.886h2.85l3.053.016 3.144.005c3.311.005 6.623.018 9.934.03 2.246.006 4.492.01 6.738.014 5.504.011 11.008.028 16.512.049v1c-6.46.64-12.882 1.064-19.375 1.176l-3.793.072c-2.586.044-5.172.074-7.758.094l-3.762.084-3.386.044c-3.56.645-4.654 1.788-6.926 4.53l-2 2h-7c-3.607 2.404-3.855 3.947-5 8l-4-1-.375 3.25c-.521 3.129-1.026 5.085-2.625 7.75l2.312-1.125L197 273l3 2c2.05.451 2.05.451 4.187.625L208 276v1l-2.816.516c-9.05 1.774-14.868 3.958-22.184 9.484-.696-9.997.755-18.552 7.375-26.375A125.095 125.095 0 0 1 194 257l1.54-1.496c5.722-5.157 12.581-7.638 20.229-7.618Z"/><path fill="#D7D9D3" d="M434 229c4.808 4.808 3.235 15.078 3.25 21.438-.027 27.994-5.723 52.68-17 78.187l-.957 2.176c-.763 1.734-1.528 3.466-2.293 5.199l-3-1c-.294-4.734.462-7.557 2.625-11.75 5.651-11.768 9.26-24.048 12.188-36.75l.627-2.713c2.835-12.863 2.842-25.77 3.112-38.88.052-2.429.109-4.857.167-7.286l.04-2.275c.128-5.233.128-5.233 1.241-6.346Z"/><path fill="#D2D5D0" d="m87 162 2 2-.839 1.781c-13.332 28.454-20.2 55.365-20.724 86.781-.044 2.389-.09 4.777-.142 7.166a681.46 681.46 0 0 0-.08 4.4c-.089 4.382-.518 8.556-1.215 12.872h-1l.035-2.152.028-2.786.035-2.777c.161-2.25.161-2.25-1.098-3.285a224.497 224.497 0 0 1-.203-8.688l-.017-2.698c-.01-1.9-.016-3.8-.02-5.7-.01-2.847-.04-5.693-.072-8.539-.089-14.96 1.55-28.97 6-43.313l.754-2.48c3.08-9.744 6.87-20.05 12.558-28.582l3-1 1-3Z"/><path fill="#656663" d="M185 73c-2.423 2.767-4.9 4.059-8.234 5.566l-3.158 1.456-3.358 1.54C160.175 86.296 150.92 91.358 142 98l-1.715 1.257c-7.47 5.496-14.547 11.365-21.285 17.743-.77.73-1.542 1.46-2.336 2.21-5.38 5.235-10.101 10.835-14.664 16.79-1-3-1-3-.073-5.18 3.786-6.245 8.01-11.323 13.26-16.382l2.28-2.233c5.595-5.424 11.28-10.543 17.533-15.205l2.75-2.113c9.62-7.052 20.193-12.316 30.825-17.66a259.64 259.64 0 0 0 5.843-3.067c3.764-1.691 6.505-1.37 10.582-1.16Z"/><path fill="#CACECC" d="M424 173c2.581 3.096 3.879 5.993 5.156 9.805l1.157 3.438 1.187 3.632 1.217 3.697C439.66 214.997 439.66 214.997 439 226h-1l-2-9 1 21h-1l-.438-3.438c-.174-3.37-.174-3.37-1.562-4.562l-1 12h-1l-.196-2.376c-1.533-19.831-1.533-19.831-6.266-39.079-1.535-4.606-1.49-7.808-.538-12.545.2-1.811.389-3.624.563-5.438l.253-2.62L426 178h-2v-5Z"/><path fill="#3CF8B4" d="M215 281h1l-.016 3.365c-.018 4.11-.03 8.222-.039 12.333-.005 1.781-.012 3.562-.02 5.343a2553.36 2553.36 0 0 0-.023 7.67l-.015 2.421c-.1 4.065-.1 4.065 1.113 7.868l-2 2c-1.962 2.42-3.883 4.835-5.688 7.375-3.902 4.43-8.66 8.74-14.312 10.625a89.37 89.37 0 0 1-5.125.125l-2.695.008C185 340 185 340 184 339c-1.962-10.731-1.093-22.138-1-33h1v14l3 1 .438 3.188c.488 3.65.488 3.65 1.187 6.562C189 333 189 333 188 336l3-1 1-3 3-2v-3l1.813.938c2.277 1.164 2.277 1.164 5.187 2.062l.75-1.875C204 326 204 326 206.063 325.187L208 324c.819-3.562.819-3.562 1-7h2v-3h2c.9-7.186 1.296-14.327 1.563-21.563l.13-3.345c.105-2.697.208-5.395.307-8.092Z"/><path fill="#07B9EC" d="M258 248h32c-1.4 9.8-5.192 16.11-12.891 22.286-6.779 5.052-12.444 7.254-21.109 6.714l1-5 2.875.125c3.227.225 3.227.225 5.125-2.125l1.813-.313c3.237-1.017 4.926-3.237 7.187-5.687l3 1 .375-1.813C278 261 278 261 280 258l1-7-15 1v-2l-8-1v-1Z"/><path fill="#D7E3DF" d="m212 246-3 1 2 2-1.758.516c-8.22 2.55-14.915 6.61-20.242 13.484-1.618 3.251-2.882 6.547-4 10h-2v71h-3a4346.3 4346.3 0 0 1-.207-25.534c-.021-3.953-.05-7.906-.095-11.86-.044-3.825-.067-7.65-.078-11.476a433.69 433.69 0 0 0-.043-4.347c-.162-11.22.811-22.302 7.423-31.783h2l.777-1.813c3.264-5.84 10.279-8.93 16.145-11.62 2.41-.657 3.744-.371 6.078.433Z"/><path fill="#B6B6B5" d="M63 234h1v32l2 1 1-3h1l.196 1.718C69.775 279.185 72.252 291.975 76 305c.338 1.332.673 2.665 1 4h-2l-2 3c-6.52-18.82-6.52-18.82-8-28l-1 8h-1l-1-11h2l-.217-1.75c-1.007-9.31-.894-18.588-.846-27.938.006-1.684.01-3.368.014-5.052.011-4.087.028-8.173.049-12.26Z"/><path fill="#D5D8D7" d="m218 431 2.718.22c8.05.586 16.038.856 24.11.807l2.82-.016c3.853-.028 7.705-.063 11.558-.107 2.853-.03 5.706-.048 8.56-.064l2.635-.04 2.452-.011 2.141-.023c2.346.274 3.965 1.077 6.006 2.234-10.539 3.593-21.922 3.181-32.938 3.188l-3.552.037c-8.914.014-17.99-.385-26.51-3.225v-3Z"/><path fill="#17752B" d="M215 281v7h-4v2l-15-2-1 3c-3.604 1.522-6.052 2-10 2l-1 2c.26-3.73.762-5.69 3.063-8.688C195.59 279.6 204.697 280.685 215 281Z"/><path fill="#777874" d="M281 61v1c-5.268.107-10.44-.005-15.688-.5-6.356-.53-12.684-.613-19.062-.625l-2.94-.014c-5.85.012-11.509.387-17.31 1.139l6 1v1l-2.025.288c-12.538 1.812-24.69 3.808-36.745 7.759C190 73 190 73 186 73v-2l7-2v-2c28.38-8.291 58.7-11.319 88-6Z"/><path fill="#DEE1DC" d="M109 371c5.237 1.292 8.124 3.694 11.688 7.563 8.275 8.612 17.415 15.76 27.312 22.437l-2 4c-3.347-1.548-6.247-3.491-9.25-5.625l-2.703-1.914L132 396l3 6c-3.367-1.393-4.986-2.979-7-6h2c-1.379-3.194-2.881-4.994-5.563-7.188a189.576 189.576 0 0 1-9.312-8.437l-2.242-2.164c-1.976-2.32-2.925-4.337-3.883-7.211Z"/><path fill="#DEFBFE" d="M217 180h107l-1 4-1-1a59.666 59.666 0 0 0-4.144-.158l-2.707-.03-2.993-.017-3.133-.03a5023.72 5023.72 0 0 0-10.308-.081l-7.126-.063c-6.265-.056-12.53-.105-18.795-.153-6.388-.05-12.776-.106-19.163-.161-12.544-.108-25.087-.21-37.631-.307l1-2Z"/><path fill="#454640" d="M89 352c3.595 3.329 6.224 6.99 9 11l1-4c.594.8 1.189 1.598 1.8 2.422 9.042 12.033 18.868 22.67 30.2 32.578l-1 3c-14.558-8.208-26.742-22.95-36.438-36.375l-1.363-1.878C89 354.244 89 354.244 89 352Z"/><path fill="#0BA231" d="M217 219h1v14c-3.875.054-7.75.094-11.625.125l-3.316.05c-10.04.062-10.04.062-15.059-2.175l3-1 1-3c2.583-.195 5.166-.381 7.75-.563l2.21-.17c3.59-.244 6.59-.264 10.04.733l1-3h3l1-5Z"/><path fill="#DCE0DB" d="M215 67v4l-1.721.38c-10.304 2.296-20.265 4.592-29.978 8.8L181 81l-2-1c.25-1.875.25-1.875 1-4 2.063-1.25 2.063-1.25 4-2l-5-1c2.414-1.61 4.34-2.655 7-3.688l2.063-.824C190 68 190 68 193 69l-7 2v2l2.231-.658c3.337-.979 6.678-1.942 10.019-2.904l3.512-1.038 3.379-.966 3.11-.905c2.72-.523 4.177-.457 6.749.471Z"/><path fill="#16367E" d="m219 248-1.938.938c-1.998.897-1.998.897-3.062 2.062-1.41.32-2.829.607-4.25.875-3.793.8-6.491 1.983-9.75 4.125-2.313.688-2.313.688-4 1v3l-3 1c-.988 2.03-.988 2.03-1.625 4.438-1.343 4.498-1.343 4.498-2.375 6.562h-3v8c2.867-.573 3.861-.861 6-3 3.125-.125 3.125-.125 6 0v-2l10 1v1l-2.816.516c-9.05 1.774-14.868 3.958-22.184 9.484-.696-9.997.755-18.552 7.375-26.375A125.095 125.095 0 0 1 194 257l1.54-1.496c6.957-6.27 14.434-7.654 23.46-7.504Z"/><path fill="#0F2BAC" d="m217.293 182.902 2.14.005c2.251.005 4.503.018 6.755.03 1.527.006 3.055.01 4.583.014 3.743.011 7.486.028 11.229.049v1l-3.586.078c-8.832.282-16.464.68-24.414 4.922-5.786 3-5.786 3-10 3-1.75-1.5-1.75-1.5-3-3l1.875-.813c2.425-1.143 2.425-1.143 4.125-4.187 3.506-1.169 6.648-1.125 10.293-1.098ZM200 191h2c-.75 5.75-.75 5.75-3 8l-1 2-7-1c2.455-5.769 2.455-5.769 5.063-6.875A61.173 61.173 0 0 1 200 193v-2Z"/><path fill="#464640" d="M404 356h2c-.608 3.328-1.779 5.304-3.875 7.938-1.684 2.127-3.19 4.174-4.563 6.519-2.885 4.696-6.814 8.528-10.562 12.543l-2.309 2.578c-4.677 5.026-7.812 7.547-14.691 8.422 2.252-3.097 4.643-5.617 7.563-8.063 8.728-7.5 16.028-16.384 22.909-25.568 1.132-1.49 2.325-2.935 3.528-4.369Z"/><path fill="#067D20" d="M200 219h15l1 5h-2l-1 2c-4.988 1.456-10.305 1.331-15.469 1.518-1.848.09-3.691.278-5.531.482l-1 2c-2.563.625-2.563.625-5 1l1-6 1.813-.438c1.749-.45 3.474-.99 5.187-1.562l2 1v-2h3l1-3Z"/><path fill="#BCCEC5" d="M198 279h65c-3.09 2.06-3.71 2.248-7.196 2.227h-2.547l-2.737-.032-2.813-.008c-2.965-.011-5.93-.037-8.894-.062-2.01-.01-4.02-.02-6.03-.027A3834.24 3834.24 0 0 1 218 281l.048 3.165c.054 3.875.088 7.75.117 11.624.015 1.677.035 3.354.061 5.031.037 2.41.054 4.82.067 7.23.015.75.03 1.501.047 2.274 0 2.123 0 2.123-.34 5.676l-3 3 1-38h-18v-2Z"/><path fill="#E3E4E4" d="m234.121 63.902 2.257.005c2.353.005 4.706.018 7.06.03 1.606.006 3.212.01 4.818.014 3.915.011 7.83.028 11.744.049v1l6 1v1l-2.684.06c-21.248.337-21.248.337-42.355 2.538-3.024.41-5.914.47-8.961.402l1-3c6.753-2.894 13.87-3.15 21.121-3.098Z"/><path fill="#113C9E" d="M197 208h44v2h17v1l-1.83.031c-6.328.109-12.656.224-18.983.341a5655.3 5655.3 0 0 1-7.07.125c-3.401.059-6.802.122-10.203.187l-3.158.05c-12.624.156-12.624.156-24.756 3.266v-2l4-1 1-4Z"/><path fill="#5F5E5C" d="M132 396c3.508 1.256 6.043 2.657 8.875 5.063 4.113 3.301 8.415 6.057 12.938 8.75l1.958 1.166c3.027 1.782 6.056 3.51 9.229 5.021v4c-4.71-1.425-8.988-3.369-13.313-5.688l-1.989-1.065C143.022 409.59 136.178 405.55 132 399v-3Z"/><path fill="#D9DAD7" d="M149.5 402.563c3.768 1.547 6.977 3.504 10.43 5.648 4.454 2.595 9.071 4.833 13.712 7.073 5.155 2.513 5.155 2.513 7.358 4.716-7.307 1.693-11.126.048-17.5-3.625l-2.434-1.332A316.548 316.548 0 0 1 154 411l-2.34-1.347-2.191-1.301-1.955-1.154C146 406 146 406 145 403c2-1 2-1 4.5-.438Z"/><path fill="#DADCDB" d="M434 229c5.056 5.056 3.184 16.055 3.188 22.688l.037 3.705.005 3.556.013 3.23c-.245 2.848-.83 4.381-2.243 6.821l-1 3-2 3c.117-6.39.242-12.78.372-19.171.044-2.176.085-4.352.125-6.527.058-3.12.122-6.24.187-9.36l.05-2.968.06-2.73.048-2.415C433 230 433 230 434 229Z"/><path fill="#312D29" d="M226 176h101l1 2c-2.874.821-5.416 1.122-8.401 1.114h-2.608l-2.788-.016-2.875-.005c-3.026-.005-6.052-.018-9.078-.03-2.053-.006-4.107-.01-6.16-.014-5.03-.011-10.06-.028-15.09-.049v-1l-55-1v-1Z"/><path fill="#DEDEDB" d="M383 375c0 5.193-1.618 8.599-5.203 12.234A191.77 191.77 0 0 1 371 393l6-1c-6.113 6.31-12.496 12.382-20 17l-2-1c1.62-1.34 3.246-2.671 4.875-4l2.742-2.25C365 400 365 400 367 400l-2-8 1.545-1.453 6.892-6.485 2.432-2.287a272971815.226 272971815.226 0 0 0 4.457-4.193c.9-.85 1.798-1.706 2.674-2.582Z"/><path fill="#3F7FAB" d="M304 207c-1.393.652-2.79 1.297-4.188 1.938l-2.355 1.09c-5.125 2.028-10.1 2.112-15.552 2.086h-2.426c-2.635 0-5.27-.008-7.905-.016l-5.494-.005c-4.812-.003-9.624-.013-14.435-.024-4.914-.01-9.827-.015-14.74-.02-9.635-.01-19.27-.028-28.905-.049v-1l3.09-.056c9.637-.175 19.273-.366 28.91-.57 4.953-.106 9.906-.205 14.86-.293 4.785-.085 9.57-.184 14.355-.292 1.82-.039 3.641-.073 5.462-.101 2.561-.042 5.121-.1 7.682-.164l2.254-.024c4.865-.143 8.81-1.146 13.331-2.96 2.39-.628 3.743-.323 6.056.46Z"/><path fill="#30AEC8" d="M258 248h32c-1.4 9.8-5.192 16.11-12.891 22.286-6.779 5.052-12.444 7.254-21.109 6.714v-2l10-3v-1l3.125-.75c7.164-2.094 11.1-6.027 14.875-12.25l3-9h-29v-1Z"/><path fill="#282A25" d="m245.625 59.813 2.97-.002C259.45 59.886 270.213 60.866 281 62v2l-56-1 1-2c6.534-1.028 13.02-1.192 19.625-1.188Z"/><path fill="#E3E5E4" d="M68 224c-.118 6.423-.243 12.846-.372 19.269a4611.73 4611.73 0 0 0-.125 6.55c-.058 3.145-.122 6.29-.187 9.435l-.05 2.94c-.11 5.024-.425 9.85-1.266 14.806h-1l.035-2.152.028-2.786.035-2.777c.161-2.25.161-2.25-1.098-3.285-.101-2.44-.14-4.85-.133-7.29l-.003-2.231c0-1.566.001-3.131.006-4.696.005-2.377 0-4.754-.007-7.13 0-1.523.002-3.045.004-4.567l-.006-2.135c.02-4.398.268-8.635 1.139-12.951 2-1 2-1 3-1Z"/><path fill="#2C2E28" d="m406 145 3 1v3l2.333.73c3.139 1.495 3.806 2.532 5.343 5.594l1.318 2.62 1.318 2.744c.455.886.91 1.772 1.377 2.685 2.532 5.142 3.9 8.89 3.311 14.627h2l1 7c-3.43-1.715-4.196-5.782-5.625-9.188-3.873-8.981-8.014-18.28-14.105-26.007C406 148 406 148 406 145Z"/><path fill="#0723A4" d="M196 257h2l1 3-2 1c-2.908 6.285-2.908 6.285-4 13l1.875-.625L197 273l2 2-1 2c-2.33.678-4.664 1.344-7 2l-2 2c-2.125-.375-2.125-.375-4-1 .488-6.055.488-6.055 1-8l3-2c.875-2.305 1.451-4.616 2.059-7.004.941-1.996.941-1.996 3.039-2.773L196 260v-3Z"/><path fill="#68E1AC" d="M215 281h1l-.016 3.365c-.018 4.11-.03 8.222-.039 12.333-.005 1.781-.012 3.562-.02 5.343a2553.36 2553.36 0 0 0-.023 7.67l-.015 2.421c-.1 4.065-.1 4.065 1.113 7.868l-2 2a259.99 259.99 0 0 0-6.063 7.75C207 332 207 332 204 333v-2h2l.438-2.75c.427-2.47.917-4.833 1.562-7.25l.563-2.25L209 317h2v-3h2c.9-7.186 1.296-14.327 1.563-21.563l.13-3.345c.105-2.697.208-5.395.307-8.092Z"/><path fill="#D2DCE8" d="m212 246-3 1 2 2-1.758.516c-8.22 2.55-14.915 6.61-20.242 13.484-1.618 3.251-2.882 6.547-4 10l-1-2h-2c1.133-4.444 2.283-8.264 5-12h2l.777-1.813c3.264-5.84 10.279-8.93 16.145-11.62 2.41-.657 3.744-.371 6.078.433Z"/><path fill="#B6E6ED" d="M322 185h1c-.179 8.042-4.559 14.602-10.184 20.156-4.968 4.065-10.446 7.941-17.093 7.793-1.92-.226-3.826-.576-5.723-.949v-1l2.633-.734c8.766-2.478 8.766-2.478 16.367-7.266l1-2 3-1 1-3 2-1a134.078 134.078 0 0 0 3-6h2l1-5Z"/><path fill="#0658B5" d="m216 272 3.75-.125 2.11-.07c2.14.195 2.14.195 4.015 1.164 2.805 1.361 5.275 1.454 8.375 1.656l3.266.227L240 275v2c-4.41.025-8.822.043-13.232.055-1.498.005-2.995.012-4.493.02-2.164.013-4.329.018-6.494.023l-3.935.016c-4.027-.12-7.86-.554-11.846-1.114l1-3 1.625.563c2.476.595 2.476.595 5.375-.063 2.837-.473 4.332-.423 7 .5l1-2Z"/><path fill="#2FB1CF" d="M305.5 182.938A3975.277 3975.277 0 0 1 321 183a726.83 726.83 0 0 1-.906 4.308l-.51 2.423c-.726 2.82-1.803 4.967-3.584 7.268h-2l-1 4h-3l-.75 1.938C308 205 308 205 305.922 205.627L304 206l2.625-3.063 1.645-1.925a356.918 356.918 0 0 1 3.43-3.93c.532-.605 1.064-1.21 1.613-1.832l1.488-1.672c1.413-1.684 1.413-1.684 2.199-4.578h2v-5l-2.918.219c-14.687 1-29.368.88-44.082.781v-1c11.185-.84 22.286-1.129 33.5-1.063Z"/><path fill="#0CB649" d="M212 288h3v9h-2l-1 3v-2l-1.938.563L208 299l-1-1a71.42 71.42 0 0 0-4.25 0c-3.398.043-6.438-.145-9.75-1 2.168-3.252 3.24-3.722 6.914-4.66 3.688-.601 7.363-.492 11.086-.34l1-4Z"/><path fill="#D8D9D5" d="m396 359 4 1c-1.377 4.103-3.236 6.668-6.188 9.813l-2.414 2.605L389 375a711.074 711.074 0 0 0-4.063 4.625l-1.722 1.977L382 383c-.684-1.71-.684-1.71-1-4 1.152-2.227 1.152-2.227 2.938-4.625l1.937-2.625c3.32-4.296 6.685-8.55 10.125-12.75Z"/><path fill="#2C2D26" d="m125 107 2 2-1.434 1.402C113.053 122.549 113.053 122.549 102 136c-1-3-1-3-.137-5.129 5.101-8.565 11.424-15.88 20.137-20.871 1.751-1.582 1.751-1.582 3-3Z"/><path fill="#31332F" d="m275 436-2 3c-1.973.374-1.973.374-4.418.372l-2.77.02-3-.029-3.07.002a985.956 985.956 0 0 1-6.436-.029c-3.293-.023-6.584-.02-9.876-.014-2.081-.005-4.162-.012-6.243-.021l-2.998.003-2.771-.03-2.445-.013C227 439 227 439 225 437c5.031-.145 10.063-.287 15.094-.427l5.117-.146c9.933-.286 19.85-.508 29.789-.427Z"/><path fill="#55E0A9" d="M183 306h1v14l3 1-1 17 4.438-.375c.823-.07 1.647-.14 2.496-.21L195 337l1-2c1.848-.633 1.848-.633 4.063-1.125l2.222-.508L204 333c-6.41 6.765-6.41 6.765-11.543 7.23l-2.644-.043-2.668-.019C185 340 185 340 184 339c-1.962-10.731-1.093-22.138-1-33Z"/><path fill="#D0D1CD" d="m303 428 3 1c-2.831.82-5.665 1.63-8.5 2.438l-2.398.697c-5.038 1.424-9.865 2.552-15.102 2.865l-6-4 1.88-.351a7327.53 7327.53 0 0 0 8.433-1.587l2.958-.552 2.842-.537 2.619-.492c6.196-1.313 6.196-1.313 10.268.519Z"/><path fill="#098A2B" d="M208 283h6v5h-3v2l-15-2-1 3c-1.848.73-1.848.73-4.063 1.188l-2.222.48L187 293l3-7 17-1 1-2Z"/><path fill="#E6E6E6" d="m69 201 4 3-.621 2.781c-1.782 7.897-1.782 7.897-2.879 15.906-.519 3.438-.827 4.281-3.5 6.313l-2 3c.287-10.903 1.775-20.559 5-31Z"/><path fill="#545454" d="M281 62c7.305.468 13.99 1.865 21 3.938l2.848.802c6.89 1.998 6.89 1.998 9.152 4.26l-3.438-.438a228.137 228.137 0 0 0-6.449-.748c-6.29-.637-12.463-1.713-18.675-2.876l-3.057-.565C279.92 65.918 277.46 65.46 275 65v-1h6v-2Z"/><path fill="#EAF7FC" d="M219.776 244.886h2.396c2.613 0 5.226.009 7.84.016l5.435.005c4.77.003 9.538.013 14.308.024 4.866.01 9.732.015 14.599.02 9.548.01 19.097.028 28.646.049v3h-2v-2c-9.033.108-18.066.22-27.098.34-4.196.054-8.391.108-12.587.157-4.059.049-8.118.1-12.177.156-1.538.02-3.076.039-4.615.056-9.208.104-18.347.445-27.523 1.291 3.703-3.703 7.868-3.137 12.776-3.114Z"/><path fill="#0E68B4" d="M266.125 182.938A8041.567 8041.567 0 0 1 288 183v.999h-38v2l-28 1-1-2c3.567-1.19 6.957-1.363 10.68-1.559l2.38-.128c10.683-.514 21.373-.42 32.065-.375Z"/><path fill="#7E7F7A" d="M103 128c0 8.869-6.132 16.062-11 23l-1-2c-2.615 2.366-4.264 4.942-6 8l-1-2a69.66 69.66 0 0 1 3.25-6.313l1.066-1.863C92.43 139.9 97.617 133.957 103 128Z"/><path fill="#414140" d="M185 73c-3.675 4.108-8.598 5.927-13.5 8.25l-2.918 1.43-2.8 1.336-2.561 1.227C161 86 161 86 158 85v-2c2.985-1.694 5.99-3.35 9-5l2.543-1.445c5.489-2.979 9.21-4.133 15.457-3.555Z"/><path fill="#BFE6EE" d="M287 256c1.124 3.373 1.008 4.648 0 8-5.246 7.46-13.567 11.856-22.063 14.688-2.344.378-4.336.186-6.687-.125l-2.422-.31L254 278v-1l2.676-.156c8.438-.798 13.579-2.646 20.117-8.067C279 267 279 267 282 266c1.084-1.749 1.084-1.749 2-4l3-6Z"/><path fill="#17CE69" d="M183 292h1l1 10 2.875-1c4.68-1.364 9.293-1.175 14.125-1v1l-1.828.445c-4.441 1.247-6.676 1.947-9.672 5.618A653.072 653.072 0 0 0 188 312h-4c-.883-4.518-1.106-8.775-1.063-13.375l.028-3.773L183 292Z"/><path fill="#D7D7D4" d="M215 67v4c-3.036.734-6.08 1.433-9.125 2.125l-2.594.629c-5.073 1.132-8.39 1.539-13.281-.754 3.939-2.231 8.187-3.402 12.5-4.688l2.3-.72 2.231-.666 2.018-.612c2.259-.364 3.788-.003 5.951.686Z"/><path fill="#C8EFE1" d="M214 321c1 3 1 3 .031 5.05-6.103 9.016-13.075 15.38-23.906 17.825L187 344l-2-2 2.492-.594c11.668-3.126 19.223-8.377 25.547-18.719L214 321Z"/><path fill="#61635E" d="M324 422v2l3 1c-9.04 4.038-16.922 6.962-27 7v-2l1.804-.627c2.691-.935 5.381-1.873 8.071-2.81l2.84-.987 2.715-.947 2.507-.873C322.728 422 322.728 422 324 422Z"/><path fill="#A7C1CF" d="M184 207c1.177 3.678 1.036 7.167 1 11l2.703-1.348 3.547-1.714 3.516-1.723c3.14-1.18 4.228-1.517 7.234-.215v2l-2.23.734c-8.02 2.754-12.497 5.584-17.77 12.266.14-2.938.287-5.875.438-8.813l.119-2.525.127-2.432.11-2.237C183 210 183 210 184 207Z"/><path fill="#CFCFCD" d="M135 392c9.595 6.15 9.595 6.15 13 10l-2 3c-3.347-1.548-6.247-3.491-9.25-5.625l-2.703-1.914L132 396l3 6c-3.367-1.393-4.986-2.979-7-6l5-1v-2l2-1Z"/><path fill="#7A7B73" d="M89 352c3.595 3.329 6.224 6.99 9 11l1-4a593.174 593.174 0 0 1 5.063 6.25l1.47 1.777c1.377 1.739 1.377 1.739 3.467 4.973-.37 2.202-.37 2.202-1 4-5.949-4.806-10.81-9.65-15.125-15.938l-1.181-1.719C89 354.288 89 354.288 89 352Z"/><path fill="#CCCCCB" d="m403 349 3 4 5-1c-1.483 4.351-3.73 7.599-6.5 11.25l-1.223 1.64c-3.012 3.978-3.012 3.978-5.277 5.11 1.52-3.455 3.626-6.315 5.879-9.316 1.307-1.803 1.307-1.803 2.121-4.684l-6 5-3-2c1.652-3.579 3.783-6.748 6-10Z"/><path fill="#302B2C" d="m214 324 2 4h-2l-1 8 2 1c-3.061 2.624-3.732 3-8 3a193.97 193.97 0 0 0-4.75.5l-2.422.281L198 341l2.063-1.625L203 337l1.75-1.355c4.31-3.465 6.776-6.696 9.25-11.645Z"/><path fill="#076E1B" d="M200 215h18c0 4 0 4-2 7l-1-3-1.723.324c-5.813.903-9.082.44-14.277-2.324l1-2Z"/><path fill="#0E3D17" d="M184 233h35v2c-6.534 3.267-17.928.986-25.25.625l-2.239-.093c-5.276-.297-5.276-.297-7.511-2.532Z"/><path fill="#2D9749" d="M217 219h1v14c-3.938.054-7.875.094-11.813.125l-3.392.05-3.252.02-3 .032C194 233 194 233 191 231h23l1-4 2-8Z"/><path fill="#5D5E59" d="M433 300c1.146 3.437.848 4.157-.328 7.457l-.926 2.623-.996 2.733-.95 2.697c-1.668 4.67-3.459 9.118-5.8 13.49l-2-1v-2h2l-.75-2.375c-.346-5.015 1.074-9.358 3.75-13.625 2.145-.793 2.145-.793 4-1l-.125-2.813C431 303 431 303 433 300Z"/><path fill="#171A16" d="M435 214c4.344 6.516 4.288 14.235 4.195 21.848l-.008 2.719c-.011 2.832-.036 5.664-.062 8.495-.01 1.935-.02 3.869-.027 5.803-.022 4.712-.057 9.423-.098 14.135h-1l-.06-2.484c-.467-20.69-.467-20.69-2.538-41.266-.386-3.122-.474-6.108-.402-9.25Z"/><path fill="#E1E3E2" d="M218 431c2.542.142 5.083.288 7.625.438l2.16.119c4.133.246 8.138.678 12.215 1.443v1l5 1v1c-3.187.059-6.375.094-9.563.125l-2.712.05c-5.326.04-9.689-.42-14.725-2.175v-3Z"/><path fill="#D5DAD9" d="M232 64v3l2 1c-2.541.338-5.083.67-7.625 1-.713.095-1.426.19-2.16.29-4.103.526-8.067.815-12.215.71l1-3c6.094-2.612 12.429-3.16 19-3Z"/><path fill="#0E5DB7" d="M219 208h22v2h17v1c-4.126.025-8.252.043-12.378.055-1.4.005-2.8.012-4.201.02-15.593.095-15.593.095-21.421-1.075l-1-2Z"/><path fill="#1167AB" d="M223.034 247.886h2.365l2.523.016 2.606.005c2.74.005 5.481.018 8.222.03 1.86.006 3.721.01 5.582.014 4.556.011 9.112.028 13.668.049v1c-8.847.815-17.686 1.336-26.563 1.687l-3.806.182-3.635.143-3.276.14C218 251 218 251 215 249c2.749-.775 5.181-1.123 8.034-1.114Z"/><path fill="#4C4D46" d="M427 186h2c4.888 8.635 6.372 17.134 6 27-2.375-3.563-3.391-7.184-4.563-11.25l-.67-2.238c-1.313-4.5-2.219-8.857-2.767-13.512Z"/><path fill="#747270" d="M132 396c3.77 1.335 6.571 3.003 9.688 5.5l2.324 1.844C146 405 146 405 148 407h-3v2l3 1-2 1a863.529 863.529 0 0 1-5.313-3.75l-2.988-2.11c-2.437-1.933-4.116-3.481-5.699-6.14v-3Z"/><path fill="#C7C8C6" d="M232 63c4.838-.025 9.676-.043 14.514-.055 1.643-.005 3.286-.012 4.929-.02 2.373-.013 4.746-.018 7.12-.023l2.194-.015c4.83 0 9.46.433 14.243 1.113v1l-5 1v2h-5v-1l-8-1v-1l-25-1v-1Z"/><path fill="#2E2F29" d="M85 342c5.786 2.187 8.022 7.92 11 13l1.152 1.953C98 358.5 98 358.5 99 361l-1 3c-11.576-14.696-11.576-14.696-13-22Z"/><path fill="#CECFCE" d="m213.25 428.938 2.703.59L218 430v4l3 1c-7.031-.434-13.329-1.743-20-4 4.503-3.002 7.001-3.237 12.25-2.063Z"/><path fill="#262A29" d="M321 192c1.25 1.563 1.25 1.563 2 4-1.235 2.561-2.415 4.684-4 7l-1.625 2.438L316 207h-2v2c1.975-.348 1.975-.348 4-1l1-2v3c-1 1-1 1-4.063 1.063L312 210c-.551-4.802 1.037-6.95 3.938-10.688 2.775-3.503 2.775-3.503 5.062-7.312Z"/><path fill="#C2C3BE" d="M424 173c2.503 3.035 3.916 5.932 5.25 9.625l1.078 2.914C431 188 431 188 430 190l-1-4h-2l.691 1.828.872 2.422.878 2.39c.604 2.551.406 3.913-.441 6.36-2.563-1.563-2.563-1.563-5-4 .125-3.125.125-3.125 1-7 .209-1.81.396-3.623.563-5.438l.253-2.62L426 178h-2v-5Z"/><path fill="#8B8B88" d="M64 282c4.46 4.46 4.882 12.693 5.191 18.75-.003 3.09-.055 6.164-.191 9.25-5.611-8.417-5.385-18.226-5-28Z"/><path fill="#16C2E7" d="M266 249h21c-.92 4.6-2.104 7.797-4 12l-1-4h2v-5c-3.815-1.3-7.276-.894-11.25-.563l-3.828.31L266 252v-3Z"/><path fill="#CEDDEA" d="M217 180c-1 2-1 2-3.66 2.895l-3.403.917c-5.745 1.677-10.065 3.749-14.937 7.188v-4c6.022-5.663 13.98-7.327 22-7Z"/><path fill="#6C6D6A" d="M63 209h1c.078 4.578-.103 8.516-1 13-.274 4.978-.274 4.978.515 9.866.637 2.805.49 5.34.364 8.212l-.147 3.516-.17 3.656-.158 3.703c-.13 3.016-.264 6.032-.404 9.047h-1c-1.777-41.281-1.777-41.281 1-51Z"/><path fill="#393A37" d="M281 62v2c-9.972.07-19.909-.138-29.875-.5l-4.145-.145A7731.12 7731.12 0 0 1 237 63v-1c14.733-.718 29.293-1.348 44 0Z"/><path fill="#D7DBDA" d="M164 412c5.92 1.76 11.416 4.397 17 7l-4 1-1.89.746c-3.238.39-5.092-1.069-7.86-2.683l-2.984-1.715L162 415l2-3Z"/><path fill="#068C23" d="M212 219h3l1 5h-2l-1 2c-4.806 1.55-10.008 1.087-15 1 .867-1.953.867-1.953 2-4 2.125-.75 2.125-.75 4-1v2c3.488-.77 3.488-.77 7-2l1-3Z"/><path fill="#C4D0D3" d="M182 206h2l-2 25h-2c-.058-3.417-.094-6.833-.125-10.25-.017-.968-.034-1.936-.05-2.934l-.02-2.832-.032-2.602c.244-2.561.937-4.177 2.227-6.382Z"/><path fill="#124796" d="m217.293 182.805 2.14.008c2.251.011 4.503.037 6.755.062 1.527.01 3.055.02 4.583.027 3.743.022 7.486.057 11.229.098v1l-3.48.148c-8.44.397-16.609.98-24.918 2.645-2.9.23-4.181-.25-6.602-1.793 3.594-2.396 6.149-2.258 10.293-2.195Z"/><path fill="#CDCEC9" d="M68 295c2.813.25 2.813.25 6 2 1.487 3.91 2.283 7.886 3 12h-2l-2 3a2854.83 2854.83 0 0 1-2.5-7.375l-.723-2.117C68 297.227 68 297.227 68 295Z"/><path fill="#CED1D0" d="M434 262h1c1.15 9.35.68 17.74-1 27-2-3.75-2-3.75-2-6h-2c.609-5.175 1.679-9.358 4-14 .04-2.333.043-4.667 0-7Z"/><path fill="#212120" d="M67 201h1c-.442 6.912-1.344 13.728-2.438 20.563l-.37 2.417c-.956 5.784-.956 5.784-3.192 8.02-.339-8.162.701-15.95 2-24h2l-.063-2.938C66 202 66 202 67 201Z"/><path fill="#E3E4E4" d="M434 229c2 2 2 2 2.227 4.614-.01 1.079-.02 2.157-.032 3.269l-.02 3.535-.05 3.707-.027 3.73c-.024 3.049-.057 6.097-.098 9.145h-1l-1-9h-1a2398.8 2398.8 0 0 1-.063-8.938l-.025-2.576-.01-2.45-.016-2.27C433 230 433 230 434 229Z"/><path fill="#2F9ECD" d="m278 266 2 1a340.22 340.22 0 0 1-5 4l-1.469 1.344c-5.303 4.47-10.782 4.534-17.531 4.656v-2l10-3v-1l3.188-.813c3.763-1.007 3.763-1.007 6.625-2.875L278 266Z"/><path fill="#373934" d="m366 396 1 4a511.823 511.823 0 0 1-5.688 4.5c-.53.43-1.06.859-1.607 1.3-2.592 2.004-4.301 3.16-7.6 3.481L350 409v-2c1.469-1.237 1.469-1.237 3.5-2.602l2.188-1.484 2.312-1.539 2.313-1.563c1.891-1.276 3.787-2.547 5.687-3.812Z"/><path fill="#1F8CBA" d="M304 207c-8.926 5.354-18 4.452-28.063 4.25-1.741-.02-3.483-.038-5.224-.055A1347.32 1347.32 0 0 1 258 211v-1l2.886-.044c3.574-.059 7.146-.136 10.719-.218 1.539-.033 3.078-.062 4.617-.084 8.206-.126 20.859-4.95 27.778-2.654Z"/><path fill="#D7DAD4" d="M392 129c3.202 2.92 5.853 5.97 8.375 9.5l1.586 2.219c1.296 2.846.92 4.337.039 7.281-3.894-3.484-5.548-6.021-7-11l-1.625-2.688C392 132 392 132 392 129Z"/><path fill="#6F6F69" d="M350 88c7.336 3.184 12.96 7.804 19 13l-3 2c-3.82-1.556-6.26-3.956-9-7v-2l-7-4v-2Z"/><path fill="#D6D9D4" d="M421 176c3.844 3.316 4.4 7.113 5 12-.375 3.063-.375 3.063-1 5-2.887-1.444-3.12-3.273-4.25-6.25l-1.14-2.89c-.718-3.365-.169-4.853 1.39-7.86Z"/><path fill="#646560" d="m406 145 3 1v3l2.25.5c3.89 2.121 5.412 5.33 6.75 9.5l-1 2h-3c-1.79-2.484-1.79-2.484-3.625-5.75l-1.852-3.234c-1.225-2.426-2.047-4.369-2.523-7.016Z"/><path fill="#CED0CA" d="m424 305 1 2h3c-.72 4.609-2.313 8.672-4 13l-2-1v-2l-2-1 4-11Z"/><path fill="#10328D" d="m198 275 10 1v1l-2.816.516c-6.84 1.34-12.377 2.613-18.184 6.484l-3 1v-8l2 3c2.867-.573 3.861-.861 6-3 3.125-.125 3.125-.125 6 0v-2Z"/><path fill="#08ABEE" d="M300 201v2l3 2-9-1v2l2 1c-2 2-2 2-5.625 2.125L287 209l3-1-.563-2.375C289 203 289 203 290 201c3.645-.89 6.427-1.237 10 0Z"/><path fill="#91938E" d="M377 393c-2.205 1.92-4.414 3.837-6.625 5.75l-1.871 1.633c-3.684 3.18-7.393 6.012-11.504 8.617l-2-1c1.62-1.34 3.246-2.671 4.875-4l2.742-2.25C365 400 365 400 367 400v-5c5.893-3.348 5.893-3.348 10-2Z"/><path fill="#2D292C" d="M176 277h2v27h-2l.035-3.148c.054-7.109.041-14.068-.914-21.13L175 278l1-1Z"/><path fill="#D1D6D5" d="M67 264h1l2 19h-2l-1 6h-1c-1.16-8.703-.68-16.393 1-25Z"/><path fill="#2C2D2D" d="M280 70c10.558.779 10.558.779 15 3l-2 4c-1.609-.398-3.212-.82-4.813-1.25l-2.707-.703c-2.856-1.206-3.864-2.448-5.48-5.047Z"/><path fill="#A8ADAB" d="M435 220h1l1 18h-1l-.438-3.438c-.174-3.37-.174-3.37-1.562-4.562l-1 12h-1l-1-19h3l1-3Z"/><path fill="#D6D9D4" d="M122 386c3.125-.438 3.125-.438 7 0 2.387 2.066 4.2 4.416 6 7h-2v2c-2.965-1.358-5.291-2.924-7.75-5.063l-1.86-1.597L122 387v-1Z"/><path fill="#14C355" d="M212 288h3v9h-2l-1 3v-2l-1.625.625c-3.208.506-5.388-.471-8.375-1.625l2-3a84.76 84.76 0 0 1 7 2l1-8Z"/><path fill="#353236" d="m294 249 2 1c-1.169 10.272-1.169 10.272-4.5 13.188-2.5.812-2.5.812-4.5.812 3.714-11.714 3.714-11.714 7-15Z"/><path fill="#787B76" d="M401 134c4.54 4.14 7.718 8.824 11 14l-1 2c-2-1-2-1-3-4l-1.813-.313c-3.428-1.077-4.413-3.71-6.187-6.687h2l-1-5Z"/><path fill="#CBCEC9" d="m111 124 3 4a306.48 306.48 0 0 1-2.813 4l-1.582 2.25L108 136h-3c-.715-1.734-.715-1.734-1-4 1.434-2.14 1.434-2.14 3.438-4.25l1.996-2.14L111 124Z"/><path fill="#243686" d="M188 263c2 2 2 2 2.125 5.125L190 271l-4 1v6h-1v8l-2 1c-.622-8.936.998-15.996 5-24Z"/><path fill="#84867E" d="m136 96 2 1-7 6 2 2c-5.625 4-5.625 4-9 4-2.188 1.938-2.188 1.938-4 4l-2-1c2.247-2.107 4.498-4.21 6.75-6.313l1.922-1.802c3.002-2.8 5.957-5.527 9.328-7.885Z"/><path fill="#D4D9D6" d="m179 77 1 3c-2.55 2.975-5.403 4.501-9 6l-3-1c.254-1.86.254-1.86 1-4 1.777-1.266 1.777-1.266 3.938-2.25l2.152-1.016C177 77 177 77 179 77Z"/><path fill="#D3D6D3" d="M105 361c3.595 3.329 6.224 6.99 9 11-4.643 0-4.643 0-7-1-2.25-3.063-2.25-3.063-4-6l2-4Z"/><path fill="#DBE1DF" d="m272.242 64.734 2.633.016 2.617-.016c2.613.277 4.258.947 6.508 2.266-2 2-2 2-5.75 2.25-3.71-.081-6.788-.865-10.25-2.25 2-2 2-2 4.242-2.266Z"/><path fill="#2D2D2D" d="M372.938 382.125 375 383c-3.17 3.26-6.4 6.222-10 9l-2-4c6.074-6.04 6.074-6.04 9.938-5.875Z"/><path fill="#DDDFDE" d="M328 81c3.934.562 6.87 1.496 10 4v5l-12-6 2-3Z"/><path fill="#6BE8BB" d="M204 334c-4.855 4.208-7.563 6.149-14.188 6.063l-2.73-.028L185 340l-1-4 1 2c1.647-.114 3.292-.241 4.938-.375.916-.07 1.833-.14 2.777-.21L195 337l1-2c5.53-2.235 5.53-2.235 8-1Z"/><path fill="#696963" d="M81 333h2l4 9h-2l.91 1.68c.38.724.76 1.449 1.153 2.195l1.16 2.18L89 350l-1 2a504.4 504.4 0 0 1-3.5-6.125l-1.969-3.445c-1.563-3.503-1.853-5.652-1.531-9.43Z"/><path fill="#2B2C27" d="m125 107 2 2-13 13-1-3c2.387-4.407 4.632-6.648 9-9 1.751-1.582 1.751-1.582 3-3Z"/><path fill="#16B058" d="M185 294c2.063.438 2.063.438 4 1v2h2l1 4c-4.75 1-4.75 1-7 1l-1 2c-.027-1.48-.046-2.958-.063-4.438l-.035-2.496C184 295 184 295 185 294Z"/><path fill="#2F2F2A" d="M144 94c-1.407 3.329-3.007 5.132-5.875 7.313l-2.055 1.613C134 104 134 104 131.742 103.668L130 103a786.412 786.412 0 0 1 5.313-4.5l2.988-2.531C141 94 141 94 144 94Z"/><path fill="#DDE2E1" d="m271 431.75 3.125-.016c2.821.261 4.476.813 6.875 2.266-1 1-1 1-3.223 1.133-5.688-.016-11.15-.284-16.777-1.133 3.396-2.057 6.062-2.27 10-2.25Z"/><path fill="#6A6B67" d="M355 409c-2.797 3.29-6.195 5.063-10 7l-2-1c.309-2.986.832-3.861 3.188-5.813 3.405-1.437 5.283-1.09 8.812-.187Z"/><path fill="#202220" d="M437 268h1c.237 7.108-.183 14.09-2 21l-2 1c.115-2.355.242-4.708.375-7.063.07-1.31.14-2.621.21-3.972.413-3.946 1.213-7.206 2.415-10.965Z"/><path fill="#2C302D" d="m286 264 2 1-.563 2.375c-.697 2.596-.697 2.596.563 4.625l-7 2-2-3 7-7Z"/><path fill="#091973" d="M186 205c1.16 3.478.708 5.459 0 9l6-1-1 3a168.693 168.693 0 0 1-6 2l-1 2c-.218-5.439-.104-9.87 2-15Z"/><path fill="#E7E8E7" d="M68 224c.113 6.11-.104 11.952-1 18h-3c-.104-5.751-.201-11.355 1-17 2-1 2-1 3-1Z"/><path fill="#236736" d="M184 225c2 2 2 2 2 6l8 1v1h-13c1.875-6.875 1.875-6.875 3-8Z"/><path fill="#323530" d="m123 118 3 4-2 4v-2l-1.68.91c-.724.38-1.449.76-2.195 1.153l-2.18 1.16L116 128l-2-1 9-9Z"/><path fill="#81E3C0" d="m214 317 3 1c-1.534 3.451-3.595 6.1-6 9l-2.063 2.75C207 332 207 332 204 333v-2h2v-2h2l2-9h4v-3Z"/><path fill="#0BB0E9" d="m271 266 5 1c-2.896 3.325-4.683 4.336-9 5l-3 2c-2.324.394-4.658.735-7 1v-3l2.875.125c3.227.225 3.227.225 5.125-2.125l2-.438c2.386-.437 2.386-.437 4-3.562Z"/><path fill="#8B8C8A" d="M434 201c4.626 6.94 5.493 16.783 5 25h-1l-.367-1.934-.508-2.504-.492-2.496L436 217l-2-1v-15Z"/><path fill="#CBD0CC" d="M418 168c2.515 2.515 3.16 4.568 4 8l-2 3h-2c-1.847-3.116-2.38-5.382-2-9l2-2Z"/><path fill="#E6E9E3" d="M116 119c2.125.375 2.125.375 4 1-1.491 3.795-3.757 5.61-7 8l-2-2c1.522-2.629 2.844-4.844 5-7Z"/><path fill="#CFCFCD" d="M93 344c3.273 2.782 4.964 6.28 7 10l-5 1c-3-3.625-3-3.625-3-7h2l-1-4Z"/><path fill="#2E2E2D" d="M426 203c2.13 2.13 2.476 3.04 3.188 5.875l.542 2.055c.3 2.298-.036 3.876-.73 6.07v-2l-4-1a757.916 757.916 0 0 1-.063-4.938l-.035-2.777C425 204 425 204 426 203Z"/><path fill="#0343B7" d="m215.75 185.938 2.422.027L220 186v1l-2.625.813c-3.415 1.108-3.415 1.108-6.563 2.875C208 192 208 192 205 191c.75-1.938.75-1.938 2-4 2.935-1.03 5.66-1.108 8.75-1.063Z"/><path fill="#444641" d="M190 428a572.7 572.7 0 0 1 5.375.875l3.023.492C201 430 201 430 203 432h-2v2l-7-1v-2l-4-1v-2Z"/><path fill="#303332" d="m176 410-2 6c-5.75-1.75-5.75-1.75-8-4 3.136-3.136 5.856-3.381 10-2Z"/><path fill="#CACBC7" d="M410 352c0 4.08-2.039 6.358-4.313 9.563l-1.224 1.787c-1.99 2.844-3.543 4.703-6.463 6.65 1.52-3.455 3.626-6.315 5.879-9.316 1.307-1.803 1.307-1.803 2.121-4.684l-2-1 6-3Z"/><path fill="#0749BF" d="m217 251-6 6h-4l1-3h2v-2l-4 2 1-3c6.625-1.125 6.625-1.125 10 0Z"/><path fill="#C9C8C8" d="m69 201 4 3-1 6-3-1 .188 2.375L69 214l-3 2c.445-5.273 1.084-10.018 3-15Z"/><path fill="#E0E3DF" d="M387 125c3.859 1.46 5.003 3.266 6.75 6.938l1.297 2.652C396 137 396 137 396 140c-9-9.226-9-9.226-9-15Z"/><path fill="#313230" d="M324 76c4.565.543 7.973 1.795 12 4l-1 3c-4.033-1.22-7.543-2.56-11-5v-2Z"/><path fill="#3E3F3B" d="M213 72h-2v2h-8l3 4c-6.875-.875-6.875-.875-8-2a93.365 93.365 0 0 0-4-1c2.414-.7 4.83-1.385 7.25-2.063l2.066-.603C209.583 70.6 209.583 70.6 213 72Z"/><path fill="#2F302B" d="M404 356h2c-.607 3.153-1.642 5.189-3.563 7.75l-1.378 1.86c-.35.458-.7.917-1.059 1.39l-4-1a796.75 796.75 0 0 1 3.875-5l2.18-2.813L404 356Z"/><path fill="#99DBC6" d="M183 328h1l1 11 7 1v1l-5 1-1 3h-5l2-1v-16Z"/><path fill="#DBE0DC" d="M420 317h2c.756 2.723 1.17 4.458.313 7.188-1.539 2.124-2.902 2.848-5.313 3.812.468-4.056.88-7.466 3-11Z"/><path fill="#1D221F" d="M422 307c1.136 3.41.867 4.003-.438 7.188l-.87 2.167L420 318l-6-2 1-4h3l2-3h2v-2Z"/><path fill="#1E3222" d="M270 240h12l-1 3h-12l1-3Z"/><path fill="#0C2E8E" d="M206 185c-1.21 3.63-2.666 4.333-6 6v2l-4 1-1-3c7.4-6 7.4-6 11-6Z"/><path fill="#D5D6D4" d="M341.063 86.188c2.924 1.804 3.843 2.64 4.937 5.812-3 1-3 1-5.688-.25L338 90v-3l-3-1c3-1 3-1 6.063.188Z"/><path fill="#E0E1DB" d="m87 162 2 2-4 8h-3l-1 2c-1-3-1-3 .25-5.625C83 166 83 166 86 165l1-3Z"/><path fill="#31322C" d="M89 149h2c-.531 4.517-2.234 7.42-5 11l-3 1c0-4 0-4 1.313-5.438L86 154l1.563-2.688L89 149Z"/><path fill="#2B2C27" d="m346 87 4 1v2l2.313.875C355 92 355 92 358 94v2c-3.498-.634-5.84-2.052-8.75-4.063-.8-.547-1.598-1.095-2.422-1.66L345 89l1-2Z"/><path fill="#54544E" d="M200 67h-3l-.125 1.875C196 71 196 71 193.187 72.25 190 73 190 73 186 73v-2l7-2v-2c3.133-1.044 3.99-.934 7 0Z"/><path fill="#717171" d="M296 65c6.311 1.1 12.063 2.581 18 5v1l-3.438-.438A842.389 842.389 0 0 0 297 69l1-3-2-1Z"/><path fill="#C3C6C5" d="m286 431 2 3c-6.747 1.106-8.19.873-14-3 7.922-1.398 7.922-1.398 12 0Z"/><path fill="#09A241" d="M202 292c-2.766 2.766-5.185 2.474-9 3-2.336.956-2.336.956-4 2v-2h-2l-1 2-1-4c5.695-.642 11.267-1.125 17-1Z"/><path fill="#DFDFDF" d="M430 283h2c1.493 2.986 1.118 5.709 1 9l-1 2h-2c-1.125-7.625-1.125-7.625 0-11Z"/><path fill="#CFEEF6" d="M289 246h2v2h2c-.515 5.281-2.255 8.572-5 13-1.458-2.916-.297-4.95.52-7.957.562-2.391.633-4.596.48-7.043Z"/><path fill="#2B2B2B" d="m161 90 2 2c-3.613 4.688-3.613 4.688-5 6h-3l-1-4 7-4Z"/><path fill="#9E9F9A" d="M150 88v2h-3v2l2 1-5 3v-2l-6 2c7.568-8 7.568-8 12-8Z"/><path fill="#787978" d="m274 435 3.438.5c4.533.576 9 .595 13.562.5v1c-6.068 1.229-11.799 2.276-18 2l1-4Z"/><path fill="#2F2F2F" d="M145 395h2l1 4 6 1-3 3c-3.436-1.527-6.12-3.6-9-6h3v-2Z"/><path fill="#B7B8B1" d="m135 392 3 3-3 3-3-2 3 6c-3.367-1.393-4.986-2.979-7-6l5-1v-2l2-1Z"/><path fill="#2A2B25" d="M411 344h3c-1.14 3.856-2.178 7.065-5 10h-3c1.332-3.587 2.77-6.877 5-10Z"/><path fill="#1A2420" d="M192 344c-1.563 2-1.563 2-4 4-3.625.438-3.625.438-7 0l-2-3c4.386-.702 8.558-1.108 13-1Z"/><path fill="#43413C" d="M422 322h2v4h-2l.688 2.25c.312 2.75.312 2.75-1.125 5.063L420 335c-1.117-1.703-1.117-1.703-2-4 .68-2.36.68-2.36 1.875-4.75l1.18-2.422L422 322Z"/><path fill="#242423" d="M64 282c2.365 2.365 2.55 3.64 3.188 6.875l.542 2.617c.27 2.5.047 4.139-.73 6.508-3.394-5.373-3.327-9.87-3-16Z"/><path fill="#1F1E1E" d="M218 281c2.291-.054 4.583-.093 6.875-.125l3.867-.07C232 281 232 281 234 283h-14l-1 2-1-4Z"/><path fill="#1D4997" d="m219 248-1.938.938c-1.998.897-1.998.897-3.062 2.062a90.318 90.318 0 0 1-4.938 1.188l-2.714.605L204 253l-2-2c5.897-2.293 10.666-3.345 17-3Z"/><path fill="#C3C3C3" d="M65 216c2.9 3.866 3.802 5.337 4 10-1.313 1.688-1.313 1.688-3 3l-2 3 1-16Z"/><path fill="#DCDDD8" d="m425 194 .813 1.938c1.074 2.393 1.074 2.393 4.187 3.062l-1 9c-2.985-4.477-4-8.638-4-14Z"/><path fill="#33332E" d="m378 111 1.75 1.375c2.118 1.69 2.118 1.69 4.375 2.375 3.007 2.005 3.123 4.865 3.875 8.25-4.136-3.381-7.813-6.666-11-11l1-1Z"/><path fill="#272927" d="M292 433v3l-16 1c2.375-2.375 3.624-2.517 6.875-3.125l2.617-.508C288 433 288 433 292 433Z"/><path fill="#2D2E2A" d="M105 355c2.34 2.128 3.707 4.116 5 7l-3 2c-5-5.75-5-5.75-5-8l3-1Z"/><path fill="#302A2B" d="m307 208 3 2-1 2-2-1v2l-2 1v2l-4-1v-4l6-3Z"/><path fill="#868683" d="M67 193h1l.438 2.875c.391 3.018.391 3.018 1.562 5.125-.938 2.125-.938 2.125-2 4l-1-3-1 6h-2c.551-5.239 1.43-9.974 3-15Z"/><path fill="#7E7E7B" d="M424 173c2.503 3.035 3.916 5.932 5.25 9.625l1.078 2.914C431 188 431 188 430 190l-1-4-3 1v-9h-2v-5Z"/><path fill="#373732" d="M80 170c-.607 4.128-2.038 7.332-4 11l-2-2c.172-1.91.172-1.91.75-4.063l.547-2.16c1-2.53 2.055-2.777 4.703-2.777Z"/><path fill="#363734" d="M106 137h5l-1 7h-4l-1-3-1 2-2-1c1.813-2.5 1.813-2.5 4-5Z"/><path fill="#DDDDDE" d="M285 429c1.691.09 3.38.246 5.063.438l2.785.308L295 430l-1 2c-2.066.414-2.066.414-4.563.625l-2.503.227L285 433l-1-3 1-1Z"/><path fill="#2A302E" d="M187 416v3c-2.75.688-2.75.688-6 1-2.375-1.438-2.375-1.438-4-3 3.782-1.837 5.946-2.158 10-1Z"/><path fill="#D1D1D0" d="M165 411v3c-1.813.625-1.813.625-4 1l-3-2v-2l-3-2c4.176-1.392 6.135.177 10 2Z"/><path fill="#08AFE2" d="M266 249c1.958-.054 3.916-.093 5.875-.125l3.305-.07C278 249 278 249 280 251l-14 1v-3Z"/><path fill="#1C5D2A" d="M200 215h18c0 4 0 4-2 7l-1-6h-15v-1Z"/><path fill="#21CBE3" d="M301 184h18v5h-2v-3l-16-1v-1Z"/><path fill="#282923" d="M314 427v2h-5v2l-9 1v-2c9.41-3.444 9.41-3.444 14-3Z"/><path fill="#323232" d="m205 424 11 2-2 1v2l-9-1 2-1v-2l-2-1Z"/><path fill="#3B3C36" d="m123 388 8 6-1 3c-3.265-1.804-4.89-2.834-7-6v-3Z"/><path fill="#6A6863" d="m389 374 1 2 4-2c-1.583 4.274-4.506 6.265-8 9 0-3.694 1.282-5.778 3-9Z"/><path fill="#C8EEEC" d="m206.133 212.121 2.441.147 2.551.17 2.574.158c2.1.13 4.2.266 6.301.404v1c-2.958.221-5.916.427-8.875.625l-2.55.195-2.442.157-2.254.158C202 215 202 215 200 213c2.357-1.178 3.526-1.044 6.133-.879Z"/><path fill="#E5E5E0" d="M74 192h2a428.81 428.81 0 0 1-1.313 5.938l-.738 3.34L73 204l-3 1v-7l3-1 1-5Z"/><path fill="#20201D" d="M431 198h2c1.748 5.244 2.194 9.473 2 15-3.102-4.653-4.338-9.415-4-15Z"/><path fill="#797A73" d="m74 175 1 4 .75 2.063c.25 1.937.25 1.937-1 3.625C73 186 73 186 70 187c.477-1.626.957-3.25 1.438-4.875l.808-2.742C73 177 73 177 74 175Z"/><path fill="#DBDFDC" d="M402 143c5.571 5.143 5.571 5.143 6 9l-5-1c-1-5.75-1-5.75-1-8Z"/><path fill="#E1E2DC" d="M311 423v2l-3 2v1l-7 1-1-3a463.78 463.78 0 0 1 3.813-1.5l2.144-.844C308 423 308 423 311 423Z"/><path fill="#D8DDDC" d="M65 233h1a124.857 124.857 0 0 1 1 18c-2.538-2.584-2.995-3.76-3.074-7.453l.386-3.797.364-3.828L65 233Z"/><path fill="#29272F" d="M180 215v9l-4 1c.114-1.48.241-2.96.375-4.438.07-.823.14-1.647.21-2.496L177 216c2-1 2-1 3-1Z"/><path fill="#34352F" d="M88 164h4c-.628 2.929-1.586 5.361-3 8l-4-2 3-6Z"/><path fill="#70716A" d="M115 115c0 3.843-.937 5.768-3 9-3.188 1.375-3.188 1.375-6 2 1.408-3.215 3.103-5.322 5.625-7.75l1.914-1.86L115 115Z"/><path fill="#D0D0D1" d="m337 410 1 2 3 1c-2.386 1.892-4.072 3.024-7 4l-1-5 4-2Z"/><path fill="#CECFC9" d="M113 374c1.15.954 2.294 1.914 3.438 2.875l1.933 1.617C120 380 120 380 121 382l-3 1-7-7 2-2Z"/><path fill="#42F0B1" d="M203 326h4l-1 5h-2v2l-5 1v-2h3l1-6Z"/><path fill="#42B477" d="M183 292h1l1 10h1l-1 10h-1c-.883-4.518-1.106-8.775-1.063-13.375l.028-3.773L183 292Z"/><path fill="#207A3C" d="m190 284 2 2c-2 2-2 2-4 3-.652 2.025-.652 2.025-1 4h-2l-1 2c.373-5.35 1.996-7.51 6-11Z"/><path fill="#0745B8" d="m201 273 1.625.563c2.986.55 5.398-.056 8.375-.563l3 1v2h-14l1-3Z"/><path fill="#BAC9D4" d="m212 246-3 1 2 2-9 2-1-3c7.429-3.571 7.429-3.571 11-2Z"/><path fill="#DCDCD6" d="M103 134h2c.688 1.75.688 1.75 1 4-1.313 2.25-1.313 2.25-3 4h-2c-.688-1.75-.688-1.75-1-4 1.313-2.25 1.313-2.25 3-4Z"/><path fill="#D9DAD9" d="M308 73c2.343.256 4.678.593 7 1l1 2h-2v2l-5-1-1-4Z"/><path fill="#383236" d="m214 324 2 4h-2l-1 8c-2-1-2-1-2.875-2.625-.202-3.831 1.848-6.18 3.875-9.375Z"/><path fill="#393939" d="m425 280 5 1-1 10c-3.904-3.904-3.562-5.662-4-11Z"/><path fill="#2B2C26" d="M396 131c3.335 1.38 5.186 2.85 7 6l-1 3c-5.571-5.143-5.571-5.143-6-9Z"/><path fill="#E2E2E2" d="M222 66v3l-10 1 1-3c2.957-1.478 5.742-1.06 9-1Z"/><path fill="#D1D2CD" d="M384 375h4c-1.491 3.795-3.757 5.61-7 8 .547-3.375 1.055-5.082 3-8Z"/><path fill="#67675D" d="M109 373c2.063 1.75 2.063 1.75 4 4-.25 2.25-.25 2.25-1 4l-6-5 1-2 1 1 1-2Z"/><path fill="#CCCDCA" d="M428 291h2v3h2l-1 6h-3c-1.125-5.625-1.125-5.625 0-9Z"/><path fill="#1C6B31" d="M201 283c-2.36 2.097-3.546 2.97-6.75 3.188L192 286v-3c3.069-1.534 5.7-.55 9 0Z"/><path fill="#0E1E70" d="m184 277 2 3 7-1c-2.773 3.08-5.063 4.688-9 6v-8Z"/><path fill="#D9E6EF" d="M202 249v3c-2.888 2.108-4.385 3-8 3 1.76-4.06 3.286-6 8-6Z"/><path fill="#11B5EA" d="M294 204h11c-1 2-1 2-3.688 3.125-3.27.864-5.95 1.035-9.312.875l2-4Z"/><path fill="#2E302A" d="M179 73h6c-2.2 2.479-4.064 3.612-7.188 4.688l-2.167.761L174 79v-3l5-1v-2Z"/><path fill="#686966" d="M426 318h2c-.45 1.46-.91 2.918-1.375 4.375l-.773 2.46C425 327 425 327 423 329l-1-3h2l-1-6h2l1-2Z"/><path fill="#E0E1DD" d="M75 308c2.721 2.35 3.967 4.557 5 8l-1 3v-2l-3-1c-1.608-2.331-2.095-3.428-1.625-6.25L75 308Z"/><path fill="#31282D" d="M284 240c5.75-.125 5.75-.125 8 1v2h-11l3-1v-2Z"/><path fill="#2FADCB" d="M304 207a198.35 198.35 0 0 1-4.25 2.125l-2.39 1.195c-2.36.68-2.36.68-4.657-.203L291 209c1.412-.534 2.83-1.052 4.25-1.563l2.39-.878c2.551-.604 3.913-.406 6.36.441Z"/><path fill="#294092" d="M190 196c1.316 2.633.748 3.802.063 6.625l-.59 2.477L189 207l-4-1c1.156-3.912 2.355-6.875 5-10Z"/><path fill="#082283" d="m194 192 2 1-2 2.813c-2.266 2.983-2.266 2.983-2 6.187l-3 2c.545-4.687 1.571-8.571 5-12Z"/><path fill="#CBCDC8" d="m344 88 8 5c-4 2-4 2-6.25 1.625L344 94l1-3-1-3Z"/><path fill="#3AE198" d="M185 308h1l1 12h-3c-.143-8.571-.143-8.571 1-12Z"/><path fill="#1FDC7A" d="m191 303 2 1-1.938 2.875c-1.988 2.878-1.988 2.878-3.062 5.125h-2c-.313-2.813-.313-2.813 0-6 2.375-1.938 2.375-1.938 5-3Z"/><path fill="#303231" d="M70 279c2.749 2.749 3.97 4.239 4.125 8.188L74 290h-3c-1.176-3.674-1.074-7.17-1-11Z"/><path fill="#BFCFDF" d="m193 254 3 2c-5.143 4.429-5.143 4.429-9 5v-2h2l.875-1.938C191 255 191 255 193 254Z"/><path fill="#075C13" d="M199 216h12c-2.823 2.823-5.085 2.794-9 3l-3-3Z"/><path fill="#ACD3DD" d="M202 213v2l-9 2c1-3 1-3 2.813-4.25 2.526-.866 3.71-.635 6.187.25Z"/><path fill="#C3C3C2" d="M430 200c2.296 3.445 2.54 5.938 3 10l-5-1 2-9Z"/><path fill="#302F2B" d="m325 187 2 2c-.389 3.013-1.265 4.397-3 7l-2-6 3-3Z"/><path fill="#0637A7" d="m206 185 3 1-5 6-3-3 1.938-.875c2.214-.953 2.214-.953 3.062-3.125Zm-6 6h2l-1 3-1-3Z"/><path fill="#252621" d="m406 145 3 1v3l3 1c.688 2.063.688 2.063 1 4-3.265-1.804-4.89-2.834-7-6v-3Z"/><path fill="#C7CDCB" d="M397 141h5c.934 3.01 1.044 3.867 0 7a141.4 141.4 0 0 1-5-5v-2Z"/><path fill="#CACCCB" d="M173 79c2 2 2 2 2 5l-6 2v-5l4-2Z"/><path fill="#9B9B92" d="m193 69-7 2 1 3-8-1c2.414-1.61 4.34-2.655 7-3.688l2.063-.824C190 68 190 68 193 69Z"/><path fill="#303130" d="M344 414c-1.75 2-1.75 2-4 4h-4c1-3 1-3 2.875-4.25C341 413 341 413 344 414Z"/><path fill="#31322D" d="M378 387v5l-8 2c5.342-7 5.342-7 8-7Z"/><path fill="#B2D3E5" d="M201 279h-3v3c-2.313.625-2.313.625-5 1l-3-2c7.429-3.571 7.429-3.571 11-2Z"/><path fill="#2E312C" d="M293 255h1c.313 2.813.313 2.813 0 6-2.389 1.886-3.919 3-7 3l2-4h2l2-5Z"/><path fill="#1F5D29" d="m201 217 1 2c-7.625 1.25-7.625 1.25-11-1 3.737-1.815 6.008-2.33 10-1Z"/><path fill="#E6EBED" d="m217 180-1 2c-3.473 1.158-6.36 1.069-10 1 2.106-4.211 6.883-3.078 11-3Z"/><path fill="#C9CBC6" d="M405 151c2.438.188 2.438.188 5 1 1.313 2.063 1.313 2.063 2 4h-2l-1 2-1-3-2 1-2-4 1-1Z"/><path fill="#CACCC8" d="m131 105 2 1-1 3h-2l1 3c-3 0-3 0-6-2l6-5Z"/><path fill="#2E3432" d="M184 81v2c-2.375 1.063-2.375 1.063-5 2l-2-1v-2c3.625-2.125 3.625-2.125 7-1Zm-10 4 2 1Z"/><path fill="#CCD0CF" d="m326 79 3 2-4 3-7-3v-1l3.438.063c3.378.353 3.378.353 4.562-1.063Z"/><path fill="#2E302A" d="m145 407 6 1v3l3 1-2 1c-2.475-1.114-4.679-2.582-7-4v-2Z"/><path fill="#1B1D17" d="m410 328 1 2c-.938 2.125-.938 2.125-2 4h2l1-2-1 5h-3c-.688-1.688-.688-1.688-1-4 1.438-2.75 1.438-2.75 3-5Z"/><path fill="#08A737" d="m211 288 1 4c-3.478 1.16-5.459.708-9 0 1.188-1.563 1.188-1.563 3-3 2.688.313 2.688.313 5 1v-2Z"/><path fill="#BFE8E8" d="M192 281v3l-7 4c.125-1.813.125-1.813 1-4 3.063-1.75 3.063-1.75 6-3Z"/><path fill="#DEF5F9" d="M220 246v1l-13 1c4.065-4.065 7.788-2.769 13-2Z"/><path fill="#3F363E" d="M321 192c1.125 1.75 1.125 1.75 2 4-.688 2.188-.688 2.188-2 4l-3 1-1-2c.777-1.727.777-1.727 1.938-3.625L321 192Z"/><path fill="#CCEFF4" d="M322 185h1c-.468 4.776-1.243 8.045-4 12-1.044-3.133-.934-3.99 0-7h2l1-5Z"/><path fill="#BECEDB" d="m192 189 3 1c-1.75 3.875-1.75 3.875-4 5l-3-2 4-4Z"/><path fill="#959896" d="M401 134c2.5 2.313 2.5 2.313 5 5v3c-2.438-.375-2.438-.375-5-1l-1-2h2l-1-5Z"/><path fill="#73746D" d="M103 128c0 2.953-.439 4.49-1.5 7.188l-.844 2.167L100 139l-2-3c.953-3.467 2.287-5.657 5-8Z"/><path fill="#868881" d="m394 126 7 6-1 2-4-3-1 2-1-7Z"/><path fill="#51524B" d="m375 108 5 2v2l3 1-2 2-1.25-1.438c-1.932-1.725-3.232-2.128-5.75-2.562l1-3Z"/><path fill="#363534" d="m143 101 2 1v1l3 1c-3.625 3-3.625 3-7 3l-1-3 3-3Z"/><path fill="#323131" d="m168 86 2 1v3l-4 2-2-4c1.875-1.063 1.875-1.063 4-2Z"/><path fill="#6F6F6A" d="M179 73v2l-5 1-1 4-4-3c1.29-.672 2.581-1.337 3.875-2l2.18-1.125C177 73 177 73 179 73Z"/><path fill="#C8C9C3" d="M192 74c-2.595 2.595-4.399 2.7-8 3l-2-2c3.782-1.837 5.946-2.158 10-1Z"/><path fill="#CCCCCD" d="m305 71 5 1-2 1 1 4-6-2v-2h2v-2Z"/><path fill="#E3E3E3" d="m164 412 6 2-2 2 1 2a101.168 101.168 0 0 1-6-2l-1-2 2-2Z"/><path fill="#CACBC7" d="m364 392 2 2c-.375 2.125-.375 2.125-1 4l-6-1 1-2h2v-2l2-1Z"/><path fill="#CECFCA" d="m78 324 6 1 1 3-3 1-1 2-3-7Z"/><path fill="#0731A7" d="M196 257h2l1 3-2 1-2 3-3-1 1-3h3v-3Z"/><path fill="#042AB5" d="M196 195h5v2l-2 2-1 2h-3l1-6Z"/><path fill="#25251F" d="M73 184c1.392 4.176-.177 6.135-2 10h-1v-7l3-1v-2Z"/><path fill="#C7C7C5" d="m99 139 3 3-2 5-3-4 2-4Z"/><path fill="#DDE1DD" d="m127 110 2 4c-3.75 3-3.75 3-6 3a101.38 101.38 0 0 1 2-6l2-1Z"/><path fill="#BBBCBC" d="M213 430h5v4l3 1-10-1v-1l5-1-3-2Z"/><path fill="#E6E6E3" d="m198 426 10 2c-4 2-4 2-8 2v-3l-2-1Z"/><path fill="#3A3B37" d="M331 421v2l-7 1 1-3c2.49-1.245 3.41-.777 6 0Z"/><path fill="#DDDED8" d="m414 331 .438 1.875c.494 2.158.494 2.158 1.562 4.125-1.438 2.625-1.438 2.625-3 5-1.6-4.002-.293-7.046 1-11Z"/><path fill="#1F1E21" d="m218 320 2 1a84.76 84.76 0 0 1-2 7h-2l-1-5h2l1-3Z"/><path fill="#D0F8ED" d="m214 321 1 3c-1.813 3.188-1.813 3.188-4 6h-2c1.25-3.46 2.675-6.147 5-9Z"/><path fill="#2E2E2D" d="M81 314c1.777 2.666 2.875 5.028 4 8l-3 1c-2.125-5.625-2.125-5.625-1-9Z"/><path fill="#0436B9" d="m198 257 3 1-2 7-3-1a84.76 84.76 0 0 1 2-7Z"/><path fill="#E4E4E4" d="M431 207c2.152 3.228 2.2 4.284 2 8l-3 1c-.625-3.375-.625-3.375-1-7l2-2Z"/><path fill="#393D39" d="M420 184c2.952 2.952 3.087 5.955 4 10l-4-2 1-4-2-1 1-3Z"/><path fill="#D1D2D1" d="m97 143 2 2c-.375 2.625-.375 2.625-1 5l-3-1-1-3 3-3Z"/><path fill="#2E2D2D" d="m346 95 6 3c-1.25 1.563-1.25 1.563-3 3-2.188-.313-2.188-.313-4-1l1-5Z"/><path fill="#DDDDDC" d="m150 96-2 3-5-1v-2c2.667-1.333 4.167-.671 7 0Z"/><path fill="#DFDEDF" d="M167 82c2.125.938 2.125.938 4 2-1.25 1.563-1.25 1.563-3 3-2.188-.313-2.188-.313-4-1l1-3 2-1Z"/><path fill="#B6B6B6" d="M215 67v3c-1.75.75-1.75.75-4 1-2.25-1.938-2.25-1.938-4-4 3.053-.981 4.947-.981 8 0Z"/><path fill="#1E1D1D" d="M160 408c2.25-.25 2.25-.25 5 0 2.313 2 2.313 2 4 4-5.538-.615-5.538-.615-7.875-2.563L160 408Z"/><path fill="#D3D3CF" d="m396 359 4 1-1 4-5-1 2-4Z"/><path fill="#E1E2DC" d="M84 328c1.563 1.813 1.563 1.813 3 4l-1 3-1-2h-3v-4l2-1Z"/><path fill="#20A153" d="M212 288h3v9c-2.125-3.188-2.502-5.265-3-9Z"/><path fill="#E3E4E3" d="m68 282 2 1c.594 2.649.742 5.292 1 8l-2-3-2 1c-.043-2-.04-4 0-6l1-1Z"/><path fill="#0696E3" d="m265 270 2 3-10 2v-3l2.875.125c3.227.225 3.227.225 5.125-2.125Z"/><path fill="#0A2AAF" d="M195 273c2.125.938 2.125.938 4 2l-1 2h-5v-3l2-1Z"/><path fill="#06C4F5" d="M281 252h3v5h-2l-1 3c-1.43-2.862-.6-4.934 0-8Z"/><path fill="#058B2C" d="m192 227 4 1-1 3h-7l3-1 1-3Z"/><path fill="#434343" d="M427 209h2l1 8-1-2h-3l1-6Z"/><path fill="#C8CBC7" d="m375 111 4 4-2 1-1 2-4-4h3v-3Z"/><path fill="#C8C9C3" d="m197 425 1 2h2v3l-7-1 4-4Z"/><path fill="#CFD1CB" d="M310 422h2v3l3 1-7 2-2-2 5-1-1-3Z"/><path fill="#383832" d="M132 396c4.875 1.75 4.875 1.75 6 4h-2l-1 2c-1.5-1.313-1.5-1.313-3-3v-3Z"/><path fill="#C5CAC6" d="M122 386c3.375-.188 3.375-.188 7 0l2 3c-6 0-6 0-7.688-1.5L122 386Z"/><path fill="#CBCCC6" d="m105 361 4 5-5 1-1-2c.938-2.125.938-2.125 2-4Z"/><path fill="#838380" d="M410 352c0 3 0 3-2 6h-2v-2l-2-1 6-3Z"/><path fill="#2A312E" d="m418 316 2 3-1 2h-3l-1 3c.256-2.343.593-4.678 1-7l2-1Z"/><path fill="#26201D" d="m265 279 4 1h-2l-1 4-4-1 3-4Z"/><path fill="#3A3D36" d="m267 277 2 1-2.5 1.375L264 281v2l-4-1v-2a135.916 135.916 0 0 1 7-3Z"/><path fill="#36A5C9" d="m278 266 2 1c-2.88 2.4-5.564 4.473-9 6 1.444-3.807 3.35-5.266 7-7Z"/><path fill="#037519" d="m200 219 4 1c-2.395 2.9-4.312 3.502-8 4v-2h3l1-3Z"/><path fill="#B4F1F3" d="M300 210v2c-3.695.95-6.305.95-10 0v-1c3.406-.778 6.508-1.1 10-1Z"/><path fill="#05B8F3" d="M296 200c2.063.438 2.063.438 4 1v2l3 2c-2.313.25-2.313.25-5 0-1.813-2-1.813-2-3-4l1-1Z"/><path fill="#304E94" d="m206 185-1 3c-1.848.73-1.848.73-4.063 1.188l-2.222.48L197 190c4.773-5 4.773-5 9-5Z"/><path fill="#343A35" d="M194 182h6v3l-4 1-2-4Z"/><path fill="#CFD0CA" d="M392 129c4.875 4.75 4.875 4.75 6 7h-4c-1.46-2.647-2-3.894-2-7Z"/><path fill="#242520" d="m152 87 3 1h-2l-2 4h-4v-2h3v-2l2-1Z"/><path fill="#464545" d="M213 72h-2v2h-10c7.13-3.565 7.13-3.565 12-2Z"/><path fill="#CED0CF" d="m283 66 8 1c-3.534 2.12-6.944 2.532-11 3l3-4Z"/><path fill="#CCD1CF" d="m219 65 8 1-1 3-7-1v-3Z"/><path fill="#2C322F" d="M355.848 393.902 362 394l-5 4v-2l-4-1c1-1 1-1 2.848-1.098Z"/><path fill="#676964" d="m121 386 2 1c.625 2.563.625 2.563 1 5-3.161-1.37-3.993-1.99-6-5l3-1Z"/><path fill="#64E1B1" d="M204 334c-5.273 3.223-5.273 3.223-7 4l-2-1c1-2 1-2 3.938-3.188C202 333 202 333 204 334Z"/><path fill="#BEC0C0" d="m69 279 1 4h-2l-1 6h-1c-.293-6.055-.293-6.055 0-8l3-2Z"/><path fill="#0E4E17" d="M190 219h8l-1 2c-2.649.594-5.292.742-8 1l1-3Z"/><path fill="#392C2F" d="m319 199 1 3-2 2c-2.125-.375-2.125-.375-4-1 2-3 2-3 5-4Z"/><path fill="#2A302E" d="m80 181 5 1 1 4-3-2-2 2-1-5Z"/><path fill="#50524F" d="M421 167c3 3.75 3 3.75 3 6h-4l-1-4h2v-2Z"/><path fill="#DADCD7" d="M413 166h5c-.573 2.867-.861 3.861-3 6l-2-6Z"/><path fill="#CDCFC9" d="m116 119 2 1c-1.133 3.4-2.125 4.053-5 6l-1-3 4-4Z"/><path fill="#83847C" d="m386 117 6 5-1 2c-3-1-3-1-5-4v-3Z"/><path fill="#72736F" d="M150 88v2h-3v2l2 1-4 1c.375-2.438.375-2.438 1-5 2-1 2-1 4-1Z"/><path fill="#E4E5E0" d="m190 73 6 1c-2.36 2.097-3.546 2.97-6.75 3.188L187 77l1.5-1.438c1.615-1.321 1.615-1.321 1.5-2.562Z"/></svg>